<svg width="24" height="22" viewBox="0 0 24 22" fill="none" xmlns="http://www.w3.org/2000/svg">
<path d="M12.0008 20.6004L11.6472 20.9539C11.8425 21.1492 12.1591 21.1492 12.3543 20.9539L12.0008 20.6004ZM2.45763 11.0572L2.10408 11.4108L2.45763 11.0572ZM10.4576 3.05725L10.1041 3.4108L10.4576 3.05725ZM12.0008 4.60039L11.6472 4.95394C11.8425 5.14921 12.1591 5.14921 12.3543 4.95394L12.0008 4.60039ZM13.5439 3.05724L13.1904 2.70369V2.70369L13.5439 3.05724ZM12.3543 20.2468L2.81119 10.7037L2.10408 11.4108L11.6472 20.9539L12.3543 20.2468ZM21.1904 10.7037L11.6472 20.2468L12.3543 20.9539L21.8975 11.4108L21.1904 10.7037ZM10.1041 3.4108L11.6472 4.95394L12.3543 4.24684L10.8112 2.70369L10.1041 3.4108ZM12.3543 4.95394L13.8975 3.4108L13.1904 2.70369L11.6472 4.24684L12.3543 4.95394ZM17.5439 0.900391C15.911 0.900391 14.345 1.54906 13.1904 2.70369L13.8975 3.4108C14.8646 2.4437 16.1762 1.90039 17.5439 1.90039V0.900391ZM22.7008 7.05724C22.7008 8.42493 22.1575 9.73659 21.1904 10.7037L21.8975 11.4108C23.0521 10.2562 23.7008 8.69014 23.7008 7.05724H22.7008ZM23.7008 7.05724C23.7008 3.65691 20.9443 0.900391 17.5439 0.900391V1.90039C20.392 1.90039 22.7008 4.20919 22.7008 7.05724H23.7008ZM6.45764 1.90039C7.82532 1.90039 9.13698 2.4437 10.1041 3.4108L10.8112 2.70369C9.65656 1.54906 8.09053 0.900391 6.45764 0.900391V1.90039ZM1.30078 7.05724C1.30078 4.20919 3.60958 1.90039 6.45764 1.90039V0.900391C3.0573 0.900391 0.300781 3.65691 0.300781 7.05724H1.30078ZM2.81119 10.7037C1.84409 9.73659 1.30078 8.42493 1.30078 7.05724H0.300781C0.300781 8.69014 0.949446 10.2562 2.10408 11.4108L2.81119 10.7037Z" fill="white"/>
</svg>
