<svg width="18" height="16" viewBox="0 0 18 16" fill="none" xmlns="http://www.w3.org/2000/svg">
<path d="M9.00059 15.2003L8.64703 15.5538C8.84229 15.7491 9.15888 15.7491 9.35414 15.5538L9.00059 15.2003ZM1.84323 8.04293L1.48967 8.39649H1.48967L1.84323 8.04293ZM7.84323 2.04293L7.48967 2.39649V2.39649L7.84323 2.04293ZM9.00059 3.20029L8.64703 3.55385C8.84229 3.74911 9.15888 3.74911 9.35414 3.55385L9.00059 3.20029ZM10.1579 2.04293L9.80439 1.68938V1.68938L10.1579 2.04293ZM9.35414 14.8467L2.19678 7.68938L1.48967 8.39649L8.64703 15.5538L9.35414 14.8467ZM15.8044 7.68938L8.64703 14.8467L9.35414 15.5538L16.5115 8.39649L15.8044 7.68938ZM7.48967 2.39649L8.64703 3.55385L9.35414 2.84674L8.19678 1.68938L7.48967 2.39649ZM9.35414 3.55385L10.5115 2.39649L9.80439 1.68938L8.64703 2.84674L9.35414 3.55385ZM13.1579 0.300293C11.9001 0.300293 10.6938 0.799962 9.80439 1.68938L10.5115 2.39649C11.2134 1.69461 12.1653 1.30029 13.1579 1.30029V0.300293ZM16.9006 5.04293C16.9006 6.03554 16.5063 6.9875 15.8044 7.68938L16.5115 8.39649C17.4009 7.50707 17.9006 6.30076 17.9006 5.04293H16.9006ZM17.9006 5.04293C17.9006 2.42365 15.7772 0.300293 13.1579 0.300293V1.30029C15.2249 1.30029 16.9006 2.97593 16.9006 5.04293H17.9006ZM4.84323 1.30029C5.83584 1.30029 6.78779 1.69461 7.48967 2.39649L8.19678 1.68938C7.30736 0.799963 6.10105 0.300293 4.84323 0.300293V1.30029ZM1.10059 5.04293C1.10059 2.97593 2.77622 1.30029 4.84323 1.30029V0.300293C2.22394 0.300293 0.100586 2.42365 0.100586 5.04293H1.10059ZM2.19678 7.68938C1.4949 6.9875 1.10059 6.03554 1.10059 5.04293H0.100586C0.100586 6.30076 0.600254 7.50707 1.48967 8.39649L2.19678 7.68938Z" fill="#BF1E77"/>
</svg>
