<svg width="380" height="132" viewBox="0 0 380 132" fill="none" xmlns="http://www.w3.org/2000/svg">
<path opacity="0.1" d="M64.328 15.6C73.512 9.328 79.784 5.52 83.144 4.17599C86.504 2.71999 90.424 1.99199 94.904 1.99199C99.496 1.99199 103.024 3.55999 105.488 6.69599C107.952 9.83199 109.184 14.312 109.184 20.136C109.184 30.552 105.824 41.752 99.104 53.736C92.384 65.72 83.984 75.8 73.904 83.976C63.824 92.04 54.304 96.072 45.344 96.072C43.104 96.072 40.528 95.96 37.616 95.736C32.128 107.384 27.144 116.176 22.664 122.112C18.184 128.048 13.704 131.016 9.224 131.016C6.424 131.016 4.24 130.008 2.672 127.992C1.104 125.976 0.32 123.176 0.32 119.592C0.32 108.056 5.64 92.656 16.28 73.392C26.92 54.016 38.624 38.504 51.392 26.856C53.184 19.464 54.08 14.088 54.08 10.728C54.08 7.256 53.968 4.624 53.744 2.83199L65.84 0.815998C65.84 1.59999 65.336 6.52799 64.328 15.6ZM25.856 83.64L30.56 85.992C37.616 72.216 43.552 56.76 48.368 39.624C38.064 52.504 29.608 65.608 23 78.936C16.392 92.264 13.088 102.512 13.088 109.68C13.088 111.808 13.76 112.872 15.104 112.872C16.112 112.872 17.904 110.8 20.48 106.656C23.056 102.4 25.24 98.088 27.032 93.72C25.576 93.048 24.176 92.04 22.832 90.696L25.856 83.64ZM41.144 88.344L44.336 88.512C55.2 88.512 65.392 82.8 74.912 71.376C80.288 64.768 84.824 57.208 88.52 48.696C92.328 40.184 94.232 32.96 94.232 27.024C94.232 23.776 93.336 21.2 91.544 19.296C89.864 17.392 87.512 16.44 84.488 16.44C79 16.44 71.72 19.464 62.648 25.512C60.632 40.632 53.464 61.576 41.144 88.344ZM164.713 91.032L168.577 93.888C167.009 97.248 164.097 100.44 159.841 103.464C155.697 106.488 151.889 108 148.417 108C141.809 108 138.505 104.528 138.505 97.584C138.505 94.336 139.345 90.472 141.025 85.992L134.809 92.376C128.761 98.536 123.497 102.68 119.017 104.808C114.649 106.936 110.337 108 106.081 108C101.825 108 98.5773 106.824 96.3373 104.472C94.2093 102.008 93.1453 98.648 93.1453 94.392C93.1453 86.552 96.1693 78.824 102.217 71.208C108.265 63.48 115.993 57.208 125.401 52.392C134.809 47.576 144.217 45.112 153.625 45L153.961 50.544L146.905 52.056C136.713 54.296 127.697 58.776 119.857 65.496C112.129 72.216 108.265 78.936 108.265 85.656C108.265 92.264 110.953 95.568 116.329 95.568C121.369 95.568 127.585 92.04 134.977 84.984C142.369 77.928 148.529 69.64 153.457 60.12L160.513 64.32C153.569 78.32 150.097 87.224 150.097 91.032C150.097 92.6 150.601 93.944 151.609 95.064C152.729 96.072 153.793 96.576 154.801 96.576C155.921 96.576 156.649 96.52 156.985 96.408C157.321 96.296 157.657 96.184 157.993 96.072C158.329 95.848 158.721 95.568 159.169 95.232C159.729 94.896 160.177 94.56 160.513 94.224C160.961 93.888 161.633 93.384 162.529 92.712C163.425 92.04 164.153 91.48 164.713 91.032ZM242.541 42.648L249.093 44.16C248.981 44.944 247.357 48.36 244.221 54.408C241.197 60.344 237.949 68.184 234.477 77.928C231.005 87.56 228.765 97.304 227.757 107.16L217.005 106.32C217.005 100.16 218.965 92.208 222.885 82.464C221.877 82.352 219.805 82.296 216.669 82.296C213.645 82.296 208.045 83.024 199.869 84.48C194.157 97.248 191.301 108.168 191.301 117.24L180.045 115.728C180.045 107.776 183.013 97.976 188.949 86.328C183.237 87.224 177.525 88.568 171.813 90.36L170.133 83.808C170.133 83.472 173.101 82.52 179.037 80.952C185.085 79.384 189.565 78.376 192.477 77.928C201.437 57.32 207.541 45.392 210.789 42.144L218.013 45C217.453 46.12 216.165 48.64 214.149 52.56C209.109 62.304 205.693 69.92 203.901 75.408C213.645 74.4 219.469 73.896 221.373 73.896C223.389 73.896 225.069 73.952 226.413 74.064C234.253 56.032 239.629 45.56 242.541 42.648ZM303.744 88.176L307.608 91.2C304.136 96.016 299.376 100.048 293.328 103.296C287.28 106.432 281.4 108 275.688 108C269.976 108 265.384 106.32 261.912 102.96C258.44 99.6 256.704 95.176 256.704 89.688C256.704 79.384 262.136 69.248 273 59.28C283.976 49.312 295.064 44.328 306.264 44.328C313.656 44.328 317.352 47.24 317.352 53.064C317.352 59.112 313.432 65.216 305.592 71.376C297.864 77.536 286.944 83.136 272.832 88.176C273.84 90.752 275.408 92.768 277.536 94.224C279.664 95.68 281.848 96.408 284.088 96.408C288.904 96.408 295.456 93.664 303.744 88.176ZM271.992 83.136C281.064 80 288.848 76.08 295.344 71.376C301.84 66.672 305.088 62.36 305.088 58.44C305.088 56.984 304.528 55.696 303.408 54.576C302.288 53.456 301 52.896 299.544 52.896C294.28 52.896 288.568 56.2 282.408 62.808C276.36 69.304 272.888 76.08 271.992 83.136ZM365.431 88.176L369.295 91.2C365.823 96.016 361.063 100.048 355.015 103.296C348.967 106.432 343.087 108 337.375 108C331.663 108 327.071 106.32 323.599 102.96C320.127 99.6 318.391 95.176 318.391 89.688C318.391 79.384 323.823 69.248 334.687 59.28C345.663 49.312 356.751 44.328 367.951 44.328C375.343 44.328 379.039 47.24 379.039 53.064C379.039 59.112 375.119 65.216 367.279 71.376C359.551 77.536 348.631 83.136 334.519 88.176C335.527 90.752 337.095 92.768 339.223 94.224C341.351 95.68 343.535 96.408 345.775 96.408C350.591 96.408 357.143 93.664 365.431 88.176ZM333.679 83.136C342.751 80 350.535 76.08 357.031 71.376C363.527 66.672 366.775 62.36 366.775 58.44C366.775 56.984 366.215 55.696 365.095 54.576C363.975 53.456 362.687 52.896 361.231 52.896C355.967 52.896 350.255 56.2 344.095 62.808C338.047 69.304 334.575 76.08 333.679 83.136Z" fill="#BF1E77"/>
</svg>
