<svg width="13" height="18" viewBox="0 0 13 18" fill="none" xmlns="http://www.w3.org/2000/svg">
<path d="M12.436 17V17.5H12.936V17H12.436ZM1 17H0.5V17.5H1V17ZM9.64881 4.42857C9.64881 6.04583 8.33712 7.35714 6.71801 7.35714V8.35714C8.88879 8.35714 10.6488 6.59873 10.6488 4.42857H9.64881ZM6.71801 7.35714C5.0989 7.35714 3.7872 6.04583 3.7872 4.42857H2.7872C2.7872 6.59873 4.54723 8.35714 6.71801 8.35714V7.35714ZM3.7872 4.42857C3.7872 2.81131 5.0989 1.5 6.71801 1.5V0.5C4.54723 0.5 2.7872 2.25841 2.7872 4.42857H3.7872ZM6.71801 1.5C8.33712 1.5 9.64881 2.81131 9.64881 4.42857H10.6488C10.6488 2.25841 8.88879 0.5 6.71801 0.5V1.5ZM12.436 16.5H1V17.5H12.436V16.5ZM1.5 17C1.5 16.9984 1.5 16.9968 1.5 16.9952C1.5 16.9937 1.5 16.9921 1.5 16.9905C1.5 16.9889 1.5 16.9873 1.5 16.9857C1.5 16.9841 1.5 16.9826 1.5 16.981C1.5 16.9794 1.5 16.9778 1.5 16.9762C1.5 16.9746 1.5 16.9731 1.5 16.9715C1.5 16.9699 1.5 16.9683 1.5 16.9667C1.5 16.9651 1.5 16.9635 1.5 16.962C1.5 16.9604 1.5 16.9588 1.5 16.9572C1.5 16.9556 1.5 16.954 1.5 16.9525C1.5 16.9509 1.5 16.9493 1.5 16.9477C1.5 16.9461 1.5 16.9446 1.5 16.943C1.5 16.9414 1.5 16.9398 1.5 16.9382C1.5 16.9366 1.5 16.9351 1.5 16.9335C1.5 16.9319 1.5 16.9303 1.5 16.9287C1.5 16.9272 1.5 16.9256 1.5 16.924C1.5 16.9224 1.5 16.9208 1.5 16.9192C1.5 16.9177 1.5 16.9161 1.5 16.9145C1.5 16.9129 1.5 16.9113 1.5 16.9098C1.5 16.9082 1.5 16.9066 1.5 16.905C1.5 16.9034 1.5 16.9019 1.5 16.9003C1.5 16.8987 1.5 16.8971 1.5 16.8955C1.5 16.894 1.5 16.8924 1.5 16.8908C1.5 16.8892 1.5 16.8877 1.5 16.8861C1.5 16.8845 1.5 16.8829 1.5 16.8813C1.5 16.8798 1.5 16.8782 1.5 16.8766C1.5 16.875 1.5 16.8734 1.5 16.8719C1.5 16.8703 1.5 16.8687 1.5 16.8671C1.5 16.8656 1.5 16.864 1.5 16.8624C1.5 16.8608 1.5 16.8593 1.5 16.8577C1.5 16.8561 1.5 16.8545 1.5 16.8529C1.5 16.8514 1.5 16.8498 1.5 16.8482C1.5 16.8466 1.5 16.8451 1.5 16.8435C1.5 16.8419 1.5 16.8403 1.5 16.8388C1.5 16.8372 1.5 16.8356 1.5 16.834C1.5 16.8325 1.5 16.8309 1.5 16.8293C1.5 16.8277 1.5 16.8262 1.5 16.8246C1.5 16.823 1.5 16.8214 1.5 16.8199C1.5 16.8183 1.5 16.8167 1.5 16.8151C1.5 16.8136 1.5 16.812 1.5 16.8104C1.5 16.8089 1.5 16.8073 1.5 16.8057C1.5 16.8041 1.5 16.8026 1.5 16.801C1.5 16.7994 1.5 16.7978 1.5 16.7963C1.5 16.7947 1.5 16.7931 1.5 16.7916C1.5 16.79 1.5 16.7884 1.5 16.7868C1.5 16.7853 1.5 16.7837 1.5 16.7821C1.5 16.7805 1.5 16.779 1.5 16.7774C1.5 16.7758 1.5 16.7743 1.5 16.7727C1.5 16.7711 1.5 16.7696 1.5 16.768C1.5 16.7664 1.5 16.7648 1.5 16.7633C1.5 16.7617 1.5 16.7601 1.5 16.7586C1.5 16.757 1.5 16.7554 1.5 16.7538C1.5 16.7523 1.5 16.7507 1.5 16.7491C1.5 16.7476 1.5 16.746 1.5 16.7444C1.5 16.7429 1.5 16.7413 1.5 16.7397C1.5 16.7382 1.5 16.7366 1.5 16.735C1.5 16.7335 1.5 16.7319 1.5 16.7303C1.5 16.7287 1.5 16.7272 1.5 16.7256C1.5 16.724 1.5 16.7225 1.5 16.7209C1.5 16.7193 1.5 16.7178 1.5 16.7162C1.5 16.7146 1.5 16.7131 1.5 16.7115C1.5 16.7099 1.5 16.7084 1.5 16.7068C1.5 16.7052 1.5 16.7037 1.5 16.7021C1.5 16.7005 1.5 16.699 1.5 16.6974C1.5 16.6958 1.5 16.6943 1.5 16.6927C1.5 16.6912 1.5 16.6896 1.5 16.688C1.5 16.6865 1.5 16.6849 1.5 16.6833C1.5 16.6818 1.5 16.6802 1.5 16.6786C1.5 16.6771 1.5 16.6755 1.5 16.6739C1.5 16.6724 1.5 16.6708 1.5 16.6693C1.5 16.6677 1.5 16.6661 1.5 16.6646C1.5 16.663 1.5 16.6614 1.5 16.6599C1.5 16.6583 1.5 16.6567 1.5 16.6552C1.5 16.6536 1.5 16.6521 1.5 16.6505C1.5 16.6489 1.5 16.6474 1.5 16.6458C1.5 16.6442 1.5 16.6427 1.5 16.6411C1.5 16.6396 1.5 16.638 1.5 16.6364C1.5 16.6349 1.5 16.6333 1.5 16.6318C1.5 16.6302 1.5 16.6286 1.5 16.6271C1.5 16.6255 1.5 16.624 1.5 16.6224C1.5 16.6208 1.5 16.6193 1.5 16.6177C1.5 16.6162 1.5 16.6146 1.5 16.613C1.5 16.6115 1.5 16.6099 1.5 16.6084C1.5 16.6068 1.5 16.6052 1.5 16.6037C1.5 16.6021 1.5 16.6006 1.5 16.599C1.5 16.5974 1.5 16.5959 1.5 16.5943C1.5 16.5928 1.5 16.5912 1.5 16.5897C1.5 16.5881 1.5 16.5865 1.5 16.585C1.5 16.5834 1.5 16.5819 1.5 16.5803C1.5 16.5788 1.5 16.5772 1.5 16.5756C1.5 16.5741 1.5 16.5725 1.5 16.571C1.5 16.5694 1.5 16.5679 1.5 16.5663C1.5 16.5647 1.5 16.5632 1.5 16.5616C1.5 16.5601 1.5 16.5585 1.5 16.557C1.5 16.5554 1.5 16.5539 1.5 16.5523C1.5 16.5507 1.5 16.5492 1.5 16.5476C1.5 16.5461 1.5 16.5445 1.5 16.543C1.5 16.5414 1.5 16.5399 1.5 16.5383C1.5 16.5368 1.5 16.5352 1.5 16.5336C1.5 16.5321 1.5 16.5305 1.5 16.529C1.5 16.5274 1.5 16.5259 1.5 16.5243C1.5 16.5228 1.5 16.5212 1.5 16.5197C1.5 16.5181 1.5 16.5166 1.5 16.515C1.5 16.5135 1.5 16.5119 1.5 16.5104C1.5 16.5088 1.5 16.5072 1.5 16.5057C1.5 16.5041 1.5 16.5026 1.5 16.501C1.5 16.4995 1.5 16.4979 1.5 16.4964C1.5 16.4948 1.5 16.4933 1.5 16.4917C1.5 16.4902 1.5 16.4886 1.5 16.4871C1.5 16.4855 1.5 16.484 1.5 16.4824C1.5 16.4809 1.5 16.4793 1.5 16.4778C1.5 16.4762 1.5 16.4747 1.5 16.4731C1.5 16.4716 1.5 16.47 1.5 16.4685C1.5 16.4669 1.5 16.4654 1.5 16.4638C1.5 16.4623 1.5 16.4608 1.5 16.4592C1.5 16.4577 1.5 16.4561 1.5 16.4546C1.5 16.453 1.5 16.4515 1.5 16.4499C1.5 16.4484 1.5 16.4468 1.5 16.4453C1.5 16.4437 1.5 16.4422 1.5 16.4406C1.5 16.4391 1.5 16.4375 1.5 16.436C1.5 16.4345 1.5 16.4329 1.5 16.4314C1.5 16.4298 1.5 16.4283 1.5 16.4267C1.5 16.4252 1.5 16.4236 1.5 16.4221C1.5 16.4205 1.5 16.419 1.5 16.4175C1.5 16.4159 1.5 16.4144 1.5 16.4128C1.5 16.4113 1.5 16.4097 1.5 16.4082C1.5 16.4066 1.5 16.4051 1.5 16.4036C1.5 16.402 1.5 16.4005 1.5 16.3989C1.5 16.3974 1.5 16.3958 1.5 16.3943C1.5 16.3928 1.5 16.3912 1.5 16.3897C1.5 16.3881 1.5 16.3866 1.5 16.385C1.5 16.3835 1.5 16.382 1.5 16.3804C1.5 16.3789 1.5 16.3773 1.5 16.3758C1.5 16.3742 1.5 16.3727 1.5 16.3712C1.5 16.3696 1.5 16.3681 1.5 16.3665C1.5 16.365 1.5 16.3635 1.5 16.3619C1.5 16.3604 1.5 16.3588 1.5 16.3573C1.5 16.3558 1.5 16.3542 1.5 16.3527C1.5 16.3511 1.5 16.3496 1.5 16.3481C1.5 16.3465 1.5 16.345 1.5 16.3434C1.5 16.3419 1.5 16.3404 1.5 16.3388C1.5 16.3373 1.5 16.3358 1.5 16.3342C1.5 16.3327 1.5 16.3311 1.5 16.3296C1.5 16.3281 1.5 16.3265 1.5 16.325C1.5 16.3235 1.5 16.3219 1.5 16.3204C1.5 16.3188 1.5 16.3173 1.5 16.3158C1.5 16.3142 1.5 16.3127 1.5 16.3112C1.5 16.3096 1.5 16.3081 1.5 16.3065C1.5 16.305 1.5 16.3035 1.5 16.3019C1.5 16.3004 1.5 16.2989 1.5 16.2973C1.5 16.2958 1.5 16.2943 1.5 16.2927C1.5 16.2912 1.5 16.2897 1.5 16.2881C1.5 16.2866 1.5 16.2851 1.5 16.2835C1.5 16.282 1.5 16.2805 1.5 16.2789C1.5 16.2774 1.5 16.2759 1.5 16.2743C1.5 16.2728 1.5 16.2713 1.5 16.2697C1.5 16.2682 1.5 16.2667 1.5 16.2651C1.5 16.2636 1.5 16.2621 1.5 16.2605C1.5 16.259 1.5 16.2575 1.5 16.2559C1.5 16.2544 1.5 16.2529 1.5 16.2513C1.5 16.2498 1.5 16.2483 1.5 16.2467C1.5 16.2452 1.5 16.2437 1.5 16.2422C1.5 16.2406 1.5 16.2391 1.5 16.2376C1.5 16.236 1.5 16.2345 1.5 16.233C1.5 16.2314 1.5 16.2299 1.5 16.2284C1.5 16.2269 1.5 16.2253 1.5 16.2238C1.5 16.2223 1.5 16.2207 1.5 16.2192C1.5 16.2177 1.5 16.2162 1.5 16.2146C1.5 16.2131 1.5 16.2116 1.5 16.21C1.5 16.2085 1.5 16.207 1.5 16.2055C1.5 16.2039 1.5 16.2024 1.5 16.2009C1.5 16.1993 1.5 16.1978 1.5 16.1963C1.5 16.1948 1.5 16.1932 1.5 16.1917C1.5 16.1902 1.5 16.1887 1.5 16.1871C1.5 16.1856 1.5 16.1841 1.5 16.1826C1.5 16.181 1.5 16.1795 1.5 16.178C1.5 16.1765 1.5 16.1749 1.5 16.1734C1.5 16.1719 1.5 16.1704 1.5 16.1688C1.5 16.1673 1.5 16.1658 1.5 16.1643C1.5 16.1627 1.5 16.1612 1.5 16.1597C1.5 16.1582 1.5 16.1566 1.5 16.1551C1.5 16.1536 1.5 16.1521 1.5 16.1505C1.5 16.149 1.5 16.1475 1.5 16.146C1.5 16.1445 1.5 16.1429 1.5 16.1414C1.5 16.1399 1.5 16.1384 1.5 16.1368C1.5 16.1353 1.5 16.1338 1.5 16.1323C1.5 16.1308 1.5 16.1292 1.5 16.1277C1.5 16.1262 1.5 16.1247 1.5 16.1232C1.5 16.1216 1.5 16.1201 1.5 16.1186C1.5 16.1171 1.5 16.1156 1.5 16.114C1.5 16.1125 1.5 16.111 1.5 16.1095C1.5 16.108 1.5 16.1064 1.5 16.1049C1.5 16.1034 1.5 16.1019 1.5 16.1004C1.5 16.0988 1.5 16.0973 1.5 16.0958C1.5 16.0943 1.5 16.0928 1.5 16.0913C1.5 16.0897 1.5 16.0882 1.5 16.0867C1.5 16.0852 1.5 16.0837 1.5 16.0822C1.5 16.0806 1.5 16.0791 1.5 16.0776C1.5 16.0761 1.5 16.0746 1.5 16.0731C1.5 16.0715 1.5 16.07 1.5 16.0685C1.5 16.067 1.5 16.0655 1.5 16.064C1.5 16.0624 1.5 16.0609 1.5 16.0594C1.5 16.0579 1.5 16.0564 1.5 16.0549C1.5 16.0534 1.5 16.0518 1.5 16.0503C1.5 16.0488 1.5 16.0473 1.5 16.0458C1.5 16.0443 1.5 16.0428 1.5 16.0412C1.5 16.0397 1.5 16.0382 1.5 16.0367C1.5 16.0352 1.5 16.0337 1.5 16.0322C1.5 16.0307 1.5 16.0291 1.5 16.0276C1.5 16.0261 1.5 16.0246 1.5 16.0231C1.5 16.0216 1.5 16.0201 1.5 16.0186C1.5 16.0171 1.5 16.0155 1.5 16.014C1.5 16.0125 1.5 16.011 1.5 16.0095C1.5 16.008 1.5 16.0065 1.5 16.005C1.5 16.0035 1.5 16.0019 1.5 16.0004C1.5 15.9989 1.5 15.9974 1.5 15.9959C1.5 15.9944 1.5 15.9929 1.5 15.9914C1.5 15.9899 1.5 15.9884 1.5 15.9869C1.5 15.9853 1.5 15.9838 1.5 15.9823C1.5 15.9808 1.5 15.9793 1.5 15.9778C1.5 15.9763 1.5 15.9748 1.5 15.9733C1.5 15.9718 1.5 15.9703 1.5 15.9688C1.5 15.9673 1.5 15.9658 1.5 15.9642C1.5 15.9627 1.5 15.9612 1.5 15.9597C1.5 15.9582 1.5 15.9567 1.5 15.9552C1.5 15.9537 1.5 15.9522 1.5 15.9507C1.5 15.9492 1.5 15.9477 1.5 15.9462C1.5 15.9447 1.5 15.9432 1.5 15.9417C1.5 15.9402 1.5 15.9387 1.5 15.9372C1.5 15.9356 1.5 15.9341 1.5 15.9326C1.5 15.9311 1.5 15.9296 1.5 15.9281C1.5 15.9266 1.5 15.9251 1.5 15.9236C1.5 15.9221 1.5 15.9206 1.5 15.9191C1.5 15.9176 1.5 15.9161 1.5 15.9146C1.5 15.9131 1.5 15.9116 1.5 15.9101C1.5 15.9086 1.5 15.9071 1.5 15.9056C1.5 15.9041 1.5 15.9026 1.5 15.9011C1.5 15.8996 1.5 15.8981 1.5 15.8966C1.5 15.8951 1.5 15.8936 1.5 15.8921C1.5 15.8906 1.5 15.8891 1.5 15.8876C1.5 15.8861 1.5 15.8846 1.5 15.8831C1.5 15.8816 1.5 15.8801 1.5 15.8786C1.5 15.8771 1.5 15.8756 1.5 15.8741C1.5 15.8726 1.5 15.8711 1.5 15.8696C1.5 15.8681 1.5 15.8666 1.5 15.8651C1.5 15.8636 1.5 15.8621 1.5 15.8606C1.5 15.8591 1.5 15.8576 1.5 15.8561C1.5 15.8547 1.5 15.8532 1.5 15.8517C1.5 15.8502 1.5 15.8487 1.5 15.8472C1.5 15.8457 1.5 15.8442 1.5 15.8427C1.5 15.8412 1.5 15.8397 1.5 15.8382C1.5 15.8367 1.5 15.8352 1.5 15.8337C1.5 15.8322 1.5 15.8307 1.5 15.8292C1.5 15.8277 1.5 15.8263 1.5 15.8248C1.5 15.8233 1.5 15.8218 1.5 15.8203C1.5 15.8188 1.5 15.8173 1.5 15.8158C1.5 15.8143 1.5 15.8128 1.5 15.8113C1.5 15.8098 1.5 15.8083 1.5 15.8068C1.5 15.8054 1.5 15.8039 1.5 15.8024C1.5 15.8009 1.5 15.7994 1.5 15.7979C1.5 15.7964 1.5 15.7949 1.5 15.7934C1.5 15.7919 1.5 15.7904 1.5 15.789C1.5 15.7875 1.5 15.786 1.5 15.7845C1.5 15.783 1.5 15.7815 1.5 15.78C1.5 15.7785 1.5 15.777 1.5 15.7756C1.5 15.7741 1.5 15.7726 1.5 15.7711C1.5 15.7696 1.5 15.7681 1.5 15.7666C1.5 15.7651 1.5 15.7637 1.5 15.7622C1.5 15.7607 1.5 15.7592 1.5 15.7577C1.5 15.7562 1.5 15.7547 1.5 15.7532C1.5 15.7518 1.5 15.7503 1.5 15.7488C1.5 15.7473 1.5 15.7458 1.5 15.7443C1.5 15.7428 1.5 15.7414 1.5 15.7399C1.5 15.7384 1.5 15.7369 1.5 15.7354C1.5 15.7339 1.5 15.7324 1.5 15.731C1.5 15.7295 1.5 15.728 1.5 15.7265C1.5 15.725 1.5 15.7235 1.5 15.7221C1.5 15.7206 1.5 15.7191 1.5 15.7176C1.5 15.7161 1.5 15.7146 1.5 15.7132C1.5 15.7117 1.5 15.7102 1.5 15.7087C1.5 15.7072 1.5 15.7058 1.5 15.7043C1.5 15.7028 1.5 15.7013 1.5 15.6998C1.5 15.6983 1.5 15.6969 1.5 15.6954C1.5 15.6939 1.5 15.6924 1.5 15.6909C1.5 15.6895 1.5 15.688 1.5 15.6865C1.5 15.685 1.5 15.6835 1.5 15.6821C1.5 15.6806 1.5 15.6791 1.5 15.6776C1.5 15.6761 1.5 15.6747 1.5 15.6732C1.5 15.6717 1.5 15.6702 1.5 15.6688C1.5 15.6673 1.5 15.6658 1.5 15.6643C1.5 15.6628 1.5 15.6614 1.5 15.6599C1.5 15.6584 1.5 15.6569 1.5 15.6555C1.5 15.654 1.5 15.6525 1.5 15.651C1.5 15.6496 1.5 15.6481 1.5 15.6466C1.5 15.6451 1.5 15.6437 1.5 15.6422C1.5 15.6407 1.5 15.6392 1.5 15.6377C1.5 15.6363 1.5 15.6348 1.5 15.6333C1.5 15.6319 1.5 15.6304 1.5 15.6289C1.5 15.6274 1.5 15.626 1.5 15.6245C1.5 15.623 1.5 15.6215 1.5 15.6201C1.5 15.6186 1.5 15.6171 1.5 15.6156C1.5 15.6142 1.5 15.6127 1.5 15.6112C1.5 15.6098 1.5 15.6083 1.5 15.6068C1.5 15.6053 1.5 15.6039 1.5 15.6024C1.5 15.6009 1.5 15.5995 1.5 15.598C1.5 15.5965 1.5 15.595 1.5 15.5936C1.5 15.5921 1.5 15.5906 1.5 15.5892C1.5 15.5877 1.5 15.5862 1.5 15.5848C1.5 15.5833 1.5 15.5818 1.5 15.5803C1.5 15.5789 1.5 15.5774 1.5 15.5759C1.5 15.5745 1.5 15.573 1.5 15.5715C1.5 15.5701 1.5 15.5686 1.5 15.5671C1.5 15.5657 1.5 15.5642 1.5 15.5627C1.5 15.5613 1.5 15.5598 1.5 15.5583C1.5 15.5569 1.5 15.5554 1.5 15.5539C1.5 15.5525 1.5 15.551 1.5 15.5495C1.5 15.5481 1.5 15.5466 1.5 15.5451C1.5 15.5437 1.5 15.5422 1.5 15.5407C1.5 15.5393 1.5 15.5378 1.5 15.5363C1.5 15.5349 1.5 15.5334 1.5 15.5319C1.5 15.5305 1.5 15.529 1.5 15.5276C1.5 15.5261 1.5 15.5246 1.5 15.5232C1.5 15.5217 1.5 15.5202 1.5 15.5188C1.5 15.5173 1.5 15.5159 1.5 15.5144C1.5 15.5129 1.5 15.5115 1.5 15.51C1.5 15.5085 1.5 15.5071 1.5 15.5056C1.5 15.5042 1.5 15.5027 1.5 15.5012C1.5 15.4998 1.5 15.4983 1.5 15.4969C1.5 15.4954 1.5 15.4939 1.5 15.4925C1.5 15.491 1.5 15.4896 1.5 15.4881C1.5 15.4866 1.5 15.4852 1.5 15.4837C1.5 15.4823 1.5 15.4808 1.5 15.4793C1.5 15.4779 1.5 15.4764 1.5 15.475C1.5 15.4735 1.5 15.4721 1.5 15.4706C1.5 15.4691 1.5 15.4677 1.5 15.4662C1.5 15.4648 1.5 15.4633 1.5 15.4619C1.5 15.4604 1.5 15.4589 1.5 15.4575C1.5 15.456 1.5 15.4546 1.5 15.4531C1.5 15.4517 1.5 15.4502 1.5 15.4488C1.5 15.4473 1.5 15.4458 1.5 15.4444C1.5 15.4429 1.5 15.4415 1.5 15.44C1.5 15.4386 1.5 15.4371 1.5 15.4357C1.5 15.4342 1.5 15.4328 1.5 15.4313C1.5 15.4298 1.5 15.4284 1.5 15.4269C1.5 15.4255 1.5 15.424 1.5 15.4226C1.5 15.4211 1.5 15.4197 1.5 15.4182C1.5 15.4168 1.5 15.4153 1.5 15.4139C1.5 15.4124 1.5 15.411 1.5 15.4095C1.5 15.4081 1.5 15.4066 1.5 15.4052C1.5 15.4037 1.5 15.4023 1.5 15.4008C1.5 15.3994 1.5 15.3979 1.5 15.3965C1.5 15.395 1.5 15.3936 1.5 15.3921C1.5 15.3907 1.5 15.3892 1.5 15.3878C1.5 15.3863 1.5 15.3849 1.5 15.3834C1.5 15.382 1.5 15.3805 1.5 15.3791C1.5 15.3776 1.5 15.3762 1.5 15.3747C1.5 15.3733 1.5 15.3719 1.5 15.3704C1.5 15.369 1.5 15.3675 1.5 15.3661C1.5 15.3646 1.5 15.3632 1.5 15.3617C1.5 15.3603 1.5 15.3588 1.5 15.3574C1.5 15.3559 1.5 15.3545 1.5 15.3531C1.5 15.3516 1.5 15.3502 1.5 15.3487C1.5 15.3473 1.5 15.3458 1.5 15.3444C1.5 15.3429 1.5 15.3415 1.5 15.3401C1.5 15.3386 1.5 15.3372 1.5 15.3357C1.5 15.3343 1.5 15.3328 1.5 15.3314C1.5 15.33 1.5 15.3285 1.5 15.3271C1.5 15.3256 1.5 15.3242 1.5 15.3228C1.5 15.3213 1.5 15.3199 1.5 15.3184C1.5 15.317 1.5 15.3155 1.5 15.3141C1.5 15.3127 1.5 15.3112 1.5 15.3098C1.5 15.3083 1.5 15.3069 1.5 15.3055C1.5 15.304 1.5 15.3026 1.5 15.3012C1.5 15.2997 1.5 15.2983 1.5 15.2968C1.5 15.2954 1.5 15.294 1.5 15.2925C1.5 15.2911 1.5 15.2896 1.5 15.2882C1.5 15.2868 1.5 15.2853 1.5 15.2839C1.5 15.2825 1.5 15.281 1.5 15.2796C1.5 15.2782 1.5 15.2767 1.5 15.2753C1.5 15.2738 1.5 15.2724 1.5 15.271C1.5 15.2695 1.5 15.2681 1.5 15.2667C1.5 15.2652 1.5 15.2638 1.5 15.2624C1.5 15.2609 1.5 15.2595 1.5 15.2581C1.5 15.2566 1.5 15.2552 1.5 15.2538C1.5 15.2523 1.5 15.2509 1.5 15.2495C1.5 15.248 1.5 15.2466 1.5 15.2452C1.5 15.2437 1.5 15.2423 1.5 15.2409C1.5 15.2394 1.5 15.238 1.5 15.2366C1.5 15.2351 1.5 15.2337 1.5 15.2323C1.5 15.2308 1.5 15.2294 1.5 15.228C1.5 15.2266 1.5 15.2251 1.5 15.2237C1.5 15.2223 1.5 15.2208 1.5 15.2194C1.5 15.218 1.5 15.2165 1.5 15.2151C1.5 15.2137 1.5 15.2123 1.5 15.2108C1.5 15.2094 1.5 15.208 1.5 15.2065C1.5 15.2051 1.5 15.2037 1.5 15.2023C1.5 15.2008 1.5 15.1994 1.5 15.198C1.5 15.1966 1.5 15.1951 1.5 15.1937C1.5 15.1923 1.5 15.1908 1.5 15.1894C1.5 15.188 1.5 15.1866 1.5 15.1851C1.5 15.1837 1.5 15.1823 1.5 15.1809C1.5 15.1794 1.5 15.178 1.5 15.1766C1.5 15.1752 1.5 15.1737 1.5 15.1723C1.5 15.1709 1.5 15.1695 1.5 15.168C1.5 15.1666 1.5 15.1652 1.5 15.1638C1.5 15.1624 1.5 15.1609 1.5 15.1595C1.5 15.1581 1.5 15.1567 1.5 15.1552C1.5 15.1538 1.5 15.1524 1.5 15.151C1.5 15.1496 1.5 15.1481 1.5 15.1467C1.5 15.1453 1.5 15.1439 1.5 15.1425C1.5 15.141 1.5 15.1396 1.5 15.1382C1.5 15.1368 1.5 15.1354 1.5 15.1339C1.5 15.1325 1.5 15.1311 1.5 15.1297C1.5 15.1283 1.5 15.1268 1.5 15.1254C1.5 15.124 1.5 15.1226 1.5 15.1212C1.5 15.1197 1.5 15.1183 1.5 15.1169C1.5 15.1155 1.5 15.1141 1.5 15.1127C1.5 15.1112 1.5 15.1098 1.5 15.1084C1.5 15.107 1.5 15.1056 1.5 15.1042C1.5 15.1027 1.5 15.1013 1.5 15.0999C1.5 15.0985 1.5 15.0971 1.5 15.0957C1.5 15.0943 1.5 15.0928 1.5 15.0914C1.5 15.09 1.5 15.0886 1.5 15.0872C1.5 15.0858 1.5 15.0844 1.5 15.0829C1.5 15.0815 1.5 15.0801 1.5 15.0787C1.5 15.0773 1.5 15.0759 1.5 15.0745C1.5 15.0731 1.5 15.0716 1.5 15.0702C1.5 15.0688 1.5 15.0674 1.5 15.066C1.5 15.0646 1.5 15.0632 1.5 15.0618C1.5 15.0603 1.5 15.0589 1.5 15.0575C1.5 15.0561 1.5 15.0547 1.5 15.0533C1.5 15.0519 1.5 15.0505 1.5 15.0491C1.5 15.0477 1.5 15.0463 1.5 15.0448C1.5 15.0434 1.5 15.042 1.5 15.0406C1.5 15.0392 1.5 15.0378 1.5 15.0364C1.5 15.035 1.5 15.0336 1.5 15.0322C1.5 15.0308 1.5 15.0294 1.5 15.0279C1.5 15.0265 1.5 15.0251 1.5 15.0237C1.5 15.0223 1.5 15.0209 1.5 15.0195C1.5 15.0181 1.5 15.0167 1.5 15.0153C1.5 15.0139 1.5 15.0125 1.5 15.0111C1.5 15.0097 1.5 15.0083 1.5 15.0069C1.5 15.0055 1.5 15.0041 1.5 15.0027C1.5 15.0013 1.5 14.9999 1.5 14.9984C1.5 14.997 1.5 14.9956 1.5 14.9942C1.5 14.9928 1.5 14.9914 1.5 14.99C1.5 14.9886 1.5 14.9872 1.5 14.9858C1.5 14.9844 1.5 14.983 1.5 14.9816C1.5 14.9802 1.5 14.9788 1.5 14.9774C1.5 14.976 1.5 14.9746 1.5 14.9732C1.5 14.9718 1.5 14.9704 1.5 14.969C1.5 14.9676 1.5 14.9662 1.5 14.9648C1.5 14.9634 1.5 14.962 1.5 14.9606C1.5 14.9592 1.5 14.9578 1.5 14.9564C1.5 14.955 1.5 14.9536 1.5 14.9522C1.5 14.9508 1.5 14.9494 1.5 14.9481C1.5 14.9467 1.5 14.9453 1.5 14.9439C1.5 14.9425 1.5 14.9411 1.5 14.9397C1.5 14.9383 1.5 14.9369 1.5 14.9355C1.5 14.9341 1.5 14.9327 1.5 14.9313C1.5 14.9299 1.5 14.9285 1.5 14.9271C1.5 14.9257 1.5 14.9243 1.5 14.9229C1.5 14.9215 1.5 14.9202 1.5 14.9188C1.5 14.9174 1.5 14.916 1.5 14.9146C1.5 14.9132 1.5 14.9118 1.5 14.9104C1.5 14.909 1.5 14.9076 1.5 14.9062C1.5 14.9048 1.5 14.9034 1.5 14.9021C1.5 14.9007 1.5 14.8993 1.5 14.8979C1.5 14.8965 1.5 14.8951 1.5 14.8937C1.5 14.8923 1.5 14.8909 1.5 14.8895C1.5 14.8882 1.5 14.8868 1.5 14.8854C1.5 14.884 1.5 14.8826 1.5 14.8812C1.5 14.8798 1.5 14.8784 1.5 14.8771C1.5 14.8757 1.5 14.8743 1.5 14.8729C1.5 14.8715 1.5 14.8701 1.5 14.8687C1.5 14.8673 1.5 14.866 1.5 14.8646C1.5 14.8632 1.5 14.8618 1.5 14.8604C1.5 14.859 1.5 14.8576 1.5 14.8563C1.5 14.8549 1.5 14.8535 1.5 14.8521C1.5 14.8507 1.5 14.8493 1.5 14.848C1.5 14.8466 1.5 14.8452 1.5 14.8438C1.5 14.8424 1.5 14.841 1.5 14.8397C1.5 14.8383 1.5 14.8369 1.5 14.8355C1.5 14.8341 1.5 14.8327 1.5 14.8314C1.5 14.83 1.5 14.8286 1.5 14.8272C1.5 14.8258 1.5 14.8245 1.5 14.8231C1.5 14.8217 1.5 14.8203 1.5 14.8189C1.5 14.8175 1.5 14.8162 1.5 14.8148C1.5 14.8134 1.5 14.812 1.5 14.8107C1.5 14.8093 1.5 14.8079 1.5 14.8065C1.5 14.8051 1.5 14.8038 1.5 14.8024C1.5 14.801 1.5 14.7996 1.5 14.7982C1.5 14.7969 1.5 14.7955 1.5 14.7941C1.5 14.7927 1.5 14.7914 1.5 14.79C1.5 14.7886 1.5 14.7872 1.5 14.7859C1.5 14.7845 1.5 14.7831 1.5 14.7817C1.5 14.7804 1.5 14.779 1.5 14.7776C1.5 14.7762 1.5 14.7749 1.5 14.7735C1.5 14.7721 1.5 14.7707 1.5 14.7694C1.5 14.768 1.5 14.7666 1.5 14.7652C1.5 14.7639 1.5 14.7625 1.5 14.7611C1.5 14.7598 1.5 14.7584 1.5 14.757C1.5 14.7556 1.5 14.7543 1.5 14.7529C1.5 14.7515 1.5 14.7502 1.5 14.7488C1.5 14.7474 1.5 14.746 1.5 14.7447C1.5 14.7433 1.5 14.7419 1.5 14.7406C1.5 14.7392 1.5 14.7378 1.5 14.7365C1.5 14.7351 1.5 14.7337 1.5 14.7323C1.5 14.731 1.5 14.7296 1.5 14.7282C1.5 14.7269 1.5 14.7255 1.5 14.7241C1.5 14.7228 1.5 14.7214 1.5 14.72C1.5 14.7187 1.5 14.7173 1.5 14.7159H0.5C0.5 14.7173 0.5 14.7187 0.5 14.72C0.5 14.7214 0.5 14.7228 0.5 14.7241C0.5 14.7255 0.5 14.7269 0.5 14.7282C0.5 14.7296 0.5 14.731 0.5 14.7323C0.5 14.7337 0.5 14.7351 0.5 14.7365C0.5 14.7378 0.5 14.7392 0.5 14.7406C0.5 14.7419 0.5 14.7433 0.5 14.7447C0.5 14.746 0.5 14.7474 0.5 14.7488C0.5 14.7502 0.5 14.7515 0.5 14.7529C0.5 14.7543 0.5 14.7556 0.5 14.757C0.5 14.7584 0.5 14.7598 0.5 14.7611C0.5 14.7625 0.5 14.7639 0.5 14.7652C0.5 14.7666 0.5 14.768 0.5 14.7694C0.5 14.7707 0.5 14.7721 0.5 14.7735C0.5 14.7749 0.5 14.7762 0.5 14.7776C0.5 14.779 0.5 14.7804 0.5 14.7817C0.5 14.7831 0.5 14.7845 0.5 14.7859C0.5 14.7872 0.5 14.7886 0.5 14.79C0.5 14.7914 0.5 14.7927 0.5 14.7941C0.5 14.7955 0.5 14.7969 0.5 14.7982C0.5 14.7996 0.5 14.801 0.5 14.8024C0.5 14.8038 0.5 14.8051 0.5 14.8065C0.5 14.8079 0.5 14.8093 0.5 14.8107C0.5 14.812 0.5 14.8134 0.5 14.8148C0.5 14.8162 0.5 14.8175 0.5 14.8189C0.5 14.8203 0.5 14.8217 0.5 14.8231C0.5 14.8245 0.5 14.8258 0.5 14.8272C0.5 14.8286 0.5 14.83 0.5 14.8314C0.5 14.8327 0.5 14.8341 0.5 14.8355C0.5 14.8369 0.5 14.8383 0.5 14.8397C0.5 14.841 0.5 14.8424 0.5 14.8438C0.5 14.8452 0.5 14.8466 0.5 14.848C0.5 14.8493 0.5 14.8507 0.5 14.8521C0.5 14.8535 0.5 14.8549 0.5 14.8563C0.5 14.8576 0.5 14.859 0.5 14.8604C0.5 14.8618 0.5 14.8632 0.5 14.8646C0.5 14.866 0.5 14.8673 0.5 14.8687C0.5 14.8701 0.5 14.8715 0.5 14.8729C0.5 14.8743 0.5 14.8757 0.5 14.8771C0.5 14.8784 0.5 14.8798 0.5 14.8812C0.5 14.8826 0.5 14.884 0.5 14.8854C0.5 14.8868 0.5 14.8882 0.5 14.8895C0.5 14.8909 0.5 14.8923 0.5 14.8937C0.5 14.8951 0.5 14.8965 0.5 14.8979C0.5 14.8993 0.5 14.9007 0.5 14.9021C0.5 14.9034 0.5 14.9048 0.5 14.9062C0.5 14.9076 0.5 14.909 0.5 14.9104C0.5 14.9118 0.5 14.9132 0.5 14.9146C0.5 14.916 0.5 14.9174 0.5 14.9188C0.5 14.9202 0.5 14.9215 0.5 14.9229C0.5 14.9243 0.5 14.9257 0.5 14.9271C0.5 14.9285 0.5 14.9299 0.5 14.9313C0.5 14.9327 0.5 14.9341 0.5 14.9355C0.5 14.9369 0.5 14.9383 0.5 14.9397C0.5 14.9411 0.5 14.9425 0.5 14.9439C0.5 14.9453 0.5 14.9467 0.5 14.9481C0.5 14.9494 0.5 14.9508 0.5 14.9522C0.5 14.9536 0.5 14.955 0.5 14.9564C0.5 14.9578 0.5 14.9592 0.5 14.9606C0.5 14.962 0.5 14.9634 0.5 14.9648C0.5 14.9662 0.5 14.9676 0.5 14.969C0.5 14.9704 0.5 14.9718 0.5 14.9732C0.5 14.9746 0.5 14.976 0.5 14.9774C0.5 14.9788 0.5 14.9802 0.5 14.9816C0.5 14.983 0.5 14.9844 0.5 14.9858C0.5 14.9872 0.5 14.9886 0.5 14.99C0.5 14.9914 0.5 14.9928 0.5 14.9942C0.5 14.9956 0.5 14.997 0.5 14.9984C0.5 14.9999 0.5 15.0013 0.5 15.0027C0.5 15.0041 0.5 15.0055 0.5 15.0069C0.5 15.0083 0.5 15.0097 0.5 15.0111C0.5 15.0125 0.5 15.0139 0.5 15.0153C0.5 15.0167 0.5 15.0181 0.5 15.0195C0.5 15.0209 0.5 15.0223 0.5 15.0237C0.5 15.0251 0.5 15.0265 0.5 15.0279C0.5 15.0294 0.5 15.0308 0.5 15.0322C0.5 15.0336 0.5 15.035 0.5 15.0364C0.5 15.0378 0.5 15.0392 0.5 15.0406C0.5 15.042 0.5 15.0434 0.5 15.0448C0.5 15.0463 0.5 15.0477 0.5 15.0491C0.5 15.0505 0.5 15.0519 0.5 15.0533C0.5 15.0547 0.5 15.0561 0.5 15.0575C0.5 15.0589 0.5 15.0603 0.5 15.0618C0.5 15.0632 0.5 15.0646 0.5 15.066C0.5 15.0674 0.5 15.0688 0.5 15.0702C0.5 15.0716 0.5 15.0731 0.5 15.0745C0.5 15.0759 0.5 15.0773 0.5 15.0787C0.5 15.0801 0.5 15.0815 0.5 15.0829C0.5 15.0844 0.5 15.0858 0.5 15.0872C0.5 15.0886 0.5 15.09 0.5 15.0914C0.5 15.0928 0.5 15.0943 0.5 15.0957C0.5 15.0971 0.5 15.0985 0.5 15.0999C0.5 15.1013 0.5 15.1027 0.5 15.1042C0.5 15.1056 0.5 15.107 0.5 15.1084C0.5 15.1098 0.5 15.1112 0.5 15.1127C0.5 15.1141 0.5 15.1155 0.5 15.1169C0.5 15.1183 0.5 15.1197 0.5 15.1212C0.5 15.1226 0.5 15.124 0.5 15.1254C0.5 15.1268 0.5 15.1283 0.5 15.1297C0.5 15.1311 0.5 15.1325 0.5 15.1339C0.5 15.1354 0.5 15.1368 0.5 15.1382C0.5 15.1396 0.5 15.141 0.5 15.1425C0.5 15.1439 0.5 15.1453 0.5 15.1467C0.5 15.1481 0.5 15.1496 0.5 15.151C0.5 15.1524 0.5 15.1538 0.5 15.1552C0.5 15.1567 0.5 15.1581 0.5 15.1595C0.5 15.1609 0.5 15.1624 0.5 15.1638C0.5 15.1652 0.5 15.1666 0.5 15.168C0.5 15.1695 0.5 15.1709 0.5 15.1723C0.5 15.1737 0.5 15.1752 0.5 15.1766C0.5 15.178 0.5 15.1794 0.5 15.1809C0.5 15.1823 0.5 15.1837 0.5 15.1851C0.5 15.1866 0.5 15.188 0.5 15.1894C0.5 15.1908 0.5 15.1923 0.5 15.1937C0.5 15.1951 0.5 15.1966 0.5 15.198C0.5 15.1994 0.5 15.2008 0.5 15.2023C0.5 15.2037 0.5 15.2051 0.5 15.2065C0.5 15.208 0.5 15.2094 0.5 15.2108C0.5 15.2123 0.5 15.2137 0.5 15.2151C0.5 15.2165 0.5 15.218 0.5 15.2194C0.5 15.2208 0.5 15.2223 0.5 15.2237C0.5 15.2251 0.5 15.2266 0.5 15.228C0.5 15.2294 0.5 15.2308 0.5 15.2323C0.5 15.2337 0.5 15.2351 0.5 15.2366C0.5 15.238 0.5 15.2394 0.5 15.2409C0.5 15.2423 0.5 15.2437 0.5 15.2452C0.5 15.2466 0.5 15.248 0.5 15.2495C0.5 15.2509 0.5 15.2523 0.5 15.2538C0.5 15.2552 0.5 15.2566 0.5 15.2581C0.5 15.2595 0.5 15.2609 0.5 15.2624C0.5 15.2638 0.5 15.2652 0.5 15.2667C0.5 15.2681 0.5 15.2695 0.5 15.271C0.5 15.2724 0.5 15.2738 0.5 15.2753C0.5 15.2767 0.5 15.2782 0.5 15.2796C0.5 15.281 0.5 15.2825 0.5 15.2839C0.5 15.2853 0.5 15.2868 0.5 15.2882C0.5 15.2896 0.5 15.2911 0.5 15.2925C0.5 15.294 0.5 15.2954 0.5 15.2968C0.5 15.2983 0.5 15.2997 0.5 15.3012C0.5 15.3026 0.5 15.304 0.5 15.3055C0.5 15.3069 0.5 15.3083 0.5 15.3098C0.5 15.3112 0.5 15.3127 0.5 15.3141C0.5 15.3155 0.5 15.317 0.5 15.3184C0.5 15.3199 0.5 15.3213 0.5 15.3228C0.5 15.3242 0.5 15.3256 0.5 15.3271C0.5 15.3285 0.5 15.33 0.5 15.3314C0.5 15.3328 0.5 15.3343 0.5 15.3357C0.5 15.3372 0.5 15.3386 0.5 15.3401C0.5 15.3415 0.5 15.3429 0.5 15.3444C0.5 15.3458 0.5 15.3473 0.5 15.3487C0.5 15.3502 0.5 15.3516 0.5 15.3531C0.5 15.3545 0.5 15.3559 0.5 15.3574C0.5 15.3588 0.5 15.3603 0.5 15.3617C0.5 15.3632 0.5 15.3646 0.5 15.3661C0.5 15.3675 0.5 15.369 0.5 15.3704C0.5 15.3719 0.5 15.3733 0.5 15.3747C0.5 15.3762 0.5 15.3776 0.5 15.3791C0.5 15.3805 0.5 15.382 0.5 15.3834C0.5 15.3849 0.5 15.3863 0.5 15.3878C0.5 15.3892 0.5 15.3907 0.5 15.3921C0.5 15.3936 0.5 15.395 0.5 15.3965C0.5 15.3979 0.5 15.3994 0.5 15.4008C0.5 15.4023 0.5 15.4037 0.5 15.4052C0.5 15.4066 0.5 15.4081 0.5 15.4095C0.5 15.411 0.5 15.4124 0.5 15.4139C0.5 15.4153 0.5 15.4168 0.5 15.4182C0.5 15.4197 0.5 15.4211 0.5 15.4226C0.5 15.424 0.5 15.4255 0.5 15.4269C0.5 15.4284 0.5 15.4298 0.5 15.4313C0.5 15.4328 0.5 15.4342 0.5 15.4357C0.5 15.4371 0.5 15.4386 0.5 15.44C0.5 15.4415 0.5 15.4429 0.5 15.4444C0.5 15.4458 0.5 15.4473 0.5 15.4488C0.5 15.4502 0.5 15.4517 0.5 15.4531C0.5 15.4546 0.5 15.456 0.5 15.4575C0.5 15.4589 0.5 15.4604 0.5 15.4619C0.5 15.4633 0.5 15.4648 0.5 15.4662C0.5 15.4677 0.5 15.4691 0.5 15.4706C0.5 15.4721 0.5 15.4735 0.5 15.475C0.5 15.4764 0.5 15.4779 0.5 15.4793C0.5 15.4808 0.5 15.4823 0.5 15.4837C0.5 15.4852 0.5 15.4866 0.5 15.4881C0.5 15.4896 0.5 15.491 0.5 15.4925C0.5 15.4939 0.5 15.4954 0.5 15.4969C0.5 15.4983 0.5 15.4998 0.5 15.5012C0.5 15.5027 0.5 15.5042 0.5 15.5056C0.5 15.5071 0.5 15.5085 0.5 15.51C0.5 15.5115 0.5 15.5129 0.5 15.5144C0.5 15.5159 0.5 15.5173 0.5 15.5188C0.5 15.5202 0.5 15.5217 0.5 15.5232C0.5 15.5246 0.5 15.5261 0.5 15.5276C0.5 15.529 0.5 15.5305 0.5 15.5319C0.5 15.5334 0.5 15.5349 0.5 15.5363C0.5 15.5378 0.5 15.5393 0.5 15.5407C0.5 15.5422 0.5 15.5437 0.5 15.5451C0.5 15.5466 0.5 15.5481 0.5 15.5495C0.5 15.551 0.5 15.5525 0.5 15.5539C0.5 15.5554 0.5 15.5569 0.5 15.5583C0.5 15.5598 0.5 15.5613 0.5 15.5627C0.5 15.5642 0.5 15.5657 0.5 15.5671C0.5 15.5686 0.5 15.5701 0.5 15.5715C0.5 15.573 0.5 15.5745 0.5 15.5759C0.5 15.5774 0.5 15.5789 0.5 15.5803C0.5 15.5818 0.5 15.5833 0.5 15.5848C0.5 15.5862 0.5 15.5877 0.5 15.5892C0.5 15.5906 0.5 15.5921 0.5 15.5936C0.5 15.595 0.5 15.5965 0.5 15.598C0.5 15.5995 0.5 15.6009 0.5 15.6024C0.5 15.6039 0.5 15.6053 0.5 15.6068C0.5 15.6083 0.5 15.6098 0.5 15.6112C0.5 15.6127 0.5 15.6142 0.5 15.6156C0.5 15.6171 0.5 15.6186 0.5 15.6201C0.5 15.6215 0.5 15.623 0.5 15.6245C0.5 15.626 0.5 15.6274 0.5 15.6289C0.5 15.6304 0.5 15.6319 0.5 15.6333C0.5 15.6348 0.5 15.6363 0.5 15.6377C0.5 15.6392 0.5 15.6407 0.5 15.6422C0.5 15.6437 0.5 15.6451 0.5 15.6466C0.5 15.6481 0.5 15.6496 0.5 15.651C0.5 15.6525 0.5 15.654 0.5 15.6555C0.5 15.6569 0.5 15.6584 0.5 15.6599C0.5 15.6614 0.5 15.6628 0.5 15.6643C0.5 15.6658 0.5 15.6673 0.5 15.6688C0.5 15.6702 0.5 15.6717 0.5 15.6732C0.5 15.6747 0.5 15.6761 0.5 15.6776C0.5 15.6791 0.5 15.6806 0.5 15.6821C0.5 15.6835 0.5 15.685 0.5 15.6865C0.5 15.688 0.5 15.6895 0.5 15.6909C0.5 15.6924 0.5 15.6939 0.5 15.6954C0.5 15.6969 0.5 15.6983 0.5 15.6998C0.5 15.7013 0.5 15.7028 0.5 15.7043C0.5 15.7058 0.5 15.7072 0.5 15.7087C0.5 15.7102 0.5 15.7117 0.5 15.7132C0.5 15.7146 0.5 15.7161 0.5 15.7176C0.5 15.7191 0.5 15.7206 0.5 15.7221C0.5 15.7235 0.5 15.725 0.5 15.7265C0.5 15.728 0.5 15.7295 0.5 15.731C0.5 15.7324 0.5 15.7339 0.5 15.7354C0.5 15.7369 0.5 15.7384 0.5 15.7399C0.5 15.7414 0.5 15.7428 0.5 15.7443C0.5 15.7458 0.5 15.7473 0.5 15.7488C0.5 15.7503 0.5 15.7518 0.5 15.7532C0.5 15.7547 0.5 15.7562 0.5 15.7577C0.5 15.7592 0.5 15.7607 0.5 15.7622C0.5 15.7637 0.5 15.7651 0.5 15.7666C0.5 15.7681 0.5 15.7696 0.5 15.7711C0.5 15.7726 0.5 15.7741 0.5 15.7756C0.5 15.777 0.5 15.7785 0.5 15.78C0.5 15.7815 0.5 15.783 0.5 15.7845C0.5 15.786 0.5 15.7875 0.5 15.789C0.5 15.7904 0.5 15.7919 0.5 15.7934C0.5 15.7949 0.5 15.7964 0.5 15.7979C0.5 15.7994 0.5 15.8009 0.5 15.8024C0.5 15.8039 0.5 15.8054 0.5 15.8068C0.5 15.8083 0.5 15.8098 0.5 15.8113C0.5 15.8128 0.5 15.8143 0.5 15.8158C0.5 15.8173 0.5 15.8188 0.5 15.8203C0.5 15.8218 0.5 15.8233 0.5 15.8248C0.5 15.8263 0.5 15.8277 0.5 15.8292C0.5 15.8307 0.5 15.8322 0.5 15.8337C0.5 15.8352 0.5 15.8367 0.5 15.8382C0.5 15.8397 0.5 15.8412 0.5 15.8427C0.5 15.8442 0.5 15.8457 0.5 15.8472C0.5 15.8487 0.5 15.8502 0.5 15.8517C0.5 15.8532 0.5 15.8547 0.5 15.8561C0.5 15.8576 0.5 15.8591 0.5 15.8606C0.5 15.8621 0.5 15.8636 0.5 15.8651C0.5 15.8666 0.5 15.8681 0.5 15.8696C0.5 15.8711 0.5 15.8726 0.5 15.8741C0.5 15.8756 0.5 15.8771 0.5 15.8786C0.5 15.8801 0.5 15.8816 0.5 15.8831C0.5 15.8846 0.5 15.8861 0.5 15.8876C0.5 15.8891 0.5 15.8906 0.5 15.8921C0.5 15.8936 0.5 15.8951 0.5 15.8966C0.5 15.8981 0.5 15.8996 0.5 15.9011C0.5 15.9026 0.5 15.9041 0.5 15.9056C0.5 15.9071 0.5 15.9086 0.5 15.9101C0.5 15.9116 0.5 15.9131 0.5 15.9146C0.5 15.9161 0.5 15.9176 0.5 15.9191C0.5 15.9206 0.5 15.9221 0.5 15.9236C0.5 15.9251 0.5 15.9266 0.5 15.9281C0.5 15.9296 0.5 15.9311 0.5 15.9326C0.5 15.9341 0.5 15.9356 0.5 15.9372C0.5 15.9387 0.5 15.9402 0.5 15.9417C0.5 15.9432 0.5 15.9447 0.5 15.9462C0.5 15.9477 0.5 15.9492 0.5 15.9507C0.5 15.9522 0.5 15.9537 0.5 15.9552C0.5 15.9567 0.5 15.9582 0.5 15.9597C0.5 15.9612 0.5 15.9627 0.5 15.9642C0.5 15.9658 0.5 15.9673 0.5 15.9688C0.5 15.9703 0.5 15.9718 0.5 15.9733C0.5 15.9748 0.5 15.9763 0.5 15.9778C0.5 15.9793 0.5 15.9808 0.5 15.9823C0.5 15.9838 0.5 15.9853 0.5 15.9869C0.5 15.9884 0.5 15.9899 0.5 15.9914C0.5 15.9929 0.5 15.9944 0.5 15.9959C0.5 15.9974 0.5 15.9989 0.5 16.0004C0.5 16.0019 0.5 16.0035 0.5 16.005C0.5 16.0065 0.5 16.008 0.5 16.0095C0.5 16.011 0.5 16.0125 0.5 16.014C0.5 16.0155 0.5 16.0171 0.5 16.0186C0.5 16.0201 0.5 16.0216 0.5 16.0231C0.5 16.0246 0.5 16.0261 0.5 16.0276C0.5 16.0291 0.5 16.0307 0.5 16.0322C0.5 16.0337 0.5 16.0352 0.5 16.0367C0.5 16.0382 0.5 16.0397 0.5 16.0412C0.5 16.0428 0.5 16.0443 0.5 16.0458C0.5 16.0473 0.5 16.0488 0.5 16.0503C0.5 16.0518 0.5 16.0534 0.5 16.0549C0.5 16.0564 0.5 16.0579 0.5 16.0594C0.5 16.0609 0.5 16.0624 0.5 16.064C0.5 16.0655 0.5 16.067 0.5 16.0685C0.5 16.07 0.5 16.0715 0.5 16.0731C0.5 16.0746 0.5 16.0761 0.5 16.0776C0.5 16.0791 0.5 16.0806 0.5 16.0822C0.5 16.0837 0.5 16.0852 0.5 16.0867C0.5 16.0882 0.5 16.0897 0.5 16.0913C0.5 16.0928 0.5 16.0943 0.5 16.0958C0.5 16.0973 0.5 16.0988 0.5 16.1004C0.5 16.1019 0.5 16.1034 0.5 16.1049C0.5 16.1064 0.5 16.108 0.5 16.1095C0.5 16.111 0.5 16.1125 0.5 16.114C0.5 16.1156 0.5 16.1171 0.5 16.1186C0.5 16.1201 0.5 16.1216 0.5 16.1232C0.5 16.1247 0.5 16.1262 0.5 16.1277C0.5 16.1292 0.5 16.1308 0.5 16.1323C0.5 16.1338 0.5 16.1353 0.5 16.1368C0.5 16.1384 0.5 16.1399 0.5 16.1414C0.5 16.1429 0.5 16.1445 0.5 16.146C0.5 16.1475 0.5 16.149 0.5 16.1505C0.5 16.1521 0.5 16.1536 0.5 16.1551C0.5 16.1566 0.5 16.1582 0.5 16.1597C0.5 16.1612 0.5 16.1627 0.5 16.1643C0.5 16.1658 0.5 16.1673 0.5 16.1688C0.5 16.1704 0.5 16.1719 0.5 16.1734C0.5 16.1749 0.5 16.1765 0.5 16.178C0.5 16.1795 0.5 16.181 0.5 16.1826C0.5 16.1841 0.5 16.1856 0.5 16.1871C0.5 16.1887 0.5 16.1902 0.5 16.1917C0.5 16.1932 0.5 16.1948 0.5 16.1963C0.5 16.1978 0.5 16.1993 0.5 16.2009C0.5 16.2024 0.5 16.2039 0.5 16.2055C0.5 16.207 0.5 16.2085 0.5 16.21C0.5 16.2116 0.5 16.2131 0.5 16.2146C0.5 16.2162 0.5 16.2177 0.5 16.2192C0.5 16.2207 0.5 16.2223 0.5 16.2238C0.5 16.2253 0.5 16.2269 0.5 16.2284C0.5 16.2299 0.5 16.2314 0.5 16.233C0.5 16.2345 0.5 16.236 0.5 16.2376C0.5 16.2391 0.5 16.2406 0.5 16.2422C0.5 16.2437 0.5 16.2452 0.5 16.2467C0.5 16.2483 0.5 16.2498 0.5 16.2513C0.5 16.2529 0.5 16.2544 0.5 16.2559C0.5 16.2575 0.5 16.259 0.5 16.2605C0.5 16.2621 0.5 16.2636 0.5 16.2651C0.5 16.2667 0.5 16.2682 0.5 16.2697C0.5 16.2713 0.5 16.2728 0.5 16.2743C0.5 16.2759 0.5 16.2774 0.5 16.2789C0.5 16.2805 0.5 16.282 0.5 16.2835C0.5 16.2851 0.5 16.2866 0.5 16.2881C0.5 16.2897 0.5 16.2912 0.5 16.2927C0.5 16.2943 0.5 16.2958 0.5 16.2973C0.5 16.2989 0.5 16.3004 0.5 16.3019C0.5 16.3035 0.5 16.305 0.5 16.3065C0.5 16.3081 0.5 16.3096 0.5 16.3112C0.5 16.3127 0.5 16.3142 0.5 16.3158C0.5 16.3173 0.5 16.3188 0.5 16.3204C0.5 16.3219 0.5 16.3235 0.5 16.325C0.5 16.3265 0.5 16.3281 0.5 16.3296C0.5 16.3311 0.5 16.3327 0.5 16.3342C0.5 16.3358 0.5 16.3373 0.5 16.3388C0.5 16.3404 0.5 16.3419 0.5 16.3434C0.5 16.345 0.5 16.3465 0.5 16.3481C0.5 16.3496 0.5 16.3511 0.5 16.3527C0.5 16.3542 0.5 16.3558 0.5 16.3573C0.5 16.3588 0.5 16.3604 0.5 16.3619C0.5 16.3635 0.5 16.365 0.5 16.3665C0.5 16.3681 0.5 16.3696 0.5 16.3712C0.5 16.3727 0.5 16.3742 0.5 16.3758C0.5 16.3773 0.5 16.3789 0.5 16.3804C0.5 16.382 0.5 16.3835 0.5 16.385C0.5 16.3866 0.5 16.3881 0.5 16.3897C0.5 16.3912 0.5 16.3928 0.5 16.3943C0.5 16.3958 0.5 16.3974 0.5 16.3989C0.5 16.4005 0.5 16.402 0.5 16.4036C0.5 16.4051 0.5 16.4066 0.5 16.4082C0.5 16.4097 0.5 16.4113 0.5 16.4128C0.5 16.4144 0.5 16.4159 0.5 16.4175C0.5 16.419 0.5 16.4205 0.5 16.4221C0.5 16.4236 0.5 16.4252 0.5 16.4267C0.5 16.4283 0.5 16.4298 0.5 16.4314C0.5 16.4329 0.5 16.4345 0.5 16.436C0.5 16.4375 0.5 16.4391 0.5 16.4406C0.5 16.4422 0.5 16.4437 0.5 16.4453C0.5 16.4468 0.5 16.4484 0.5 16.4499C0.5 16.4515 0.5 16.453 0.5 16.4546C0.5 16.4561 0.5 16.4577 0.5 16.4592C0.5 16.4608 0.5 16.4623 0.5 16.4638C0.5 16.4654 0.5 16.4669 0.5 16.4685C0.5 16.47 0.5 16.4716 0.5 16.4731C0.5 16.4747 0.5 16.4762 0.5 16.4778C0.5 16.4793 0.5 16.4809 0.5 16.4824C0.5 16.484 0.5 16.4855 0.5 16.4871C0.5 16.4886 0.5 16.4902 0.5 16.4917C0.5 16.4933 0.5 16.4948 0.5 16.4964C0.5 16.4979 0.5 16.4995 0.5 16.501C0.5 16.5026 0.5 16.5041 0.5 16.5057C0.5 16.5072 0.5 16.5088 0.5 16.5104C0.5 16.5119 0.5 16.5135 0.5 16.515C0.5 16.5166 0.5 16.5181 0.5 16.5197C0.5 16.5212 0.5 16.5228 0.5 16.5243C0.5 16.5259 0.5 16.5274 0.5 16.529C0.5 16.5305 0.5 16.5321 0.5 16.5336C0.5 16.5352 0.5 16.5368 0.5 16.5383C0.5 16.5399 0.5 16.5414 0.5 16.543C0.5 16.5445 0.5 16.5461 0.5 16.5476C0.5 16.5492 0.5 16.5507 0.5 16.5523C0.5 16.5539 0.5 16.5554 0.5 16.557C0.5 16.5585 0.5 16.5601 0.5 16.5616C0.5 16.5632 0.5 16.5647 0.5 16.5663C0.5 16.5679 0.5 16.5694 0.5 16.571C0.5 16.5725 0.5 16.5741 0.5 16.5756C0.5 16.5772 0.5 16.5788 0.5 16.5803C0.5 16.5819 0.5 16.5834 0.5 16.585C0.5 16.5865 0.5 16.5881 0.5 16.5897C0.5 16.5912 0.5 16.5928 0.5 16.5943C0.5 16.5959 0.5 16.5974 0.5 16.599C0.5 16.6006 0.5 16.6021 0.5 16.6037C0.5 16.6052 0.5 16.6068 0.5 16.6084C0.5 16.6099 0.5 16.6115 0.5 16.613C0.5 16.6146 0.5 16.6162 0.5 16.6177C0.5 16.6193 0.5 16.6208 0.5 16.6224C0.5 16.624 0.5 16.6255 0.5 16.6271C0.5 16.6286 0.5 16.6302 0.5 16.6318C0.5 16.6333 0.5 16.6349 0.5 16.6364C0.5 16.638 0.5 16.6396 0.5 16.6411C0.5 16.6427 0.5 16.6442 0.5 16.6458C0.5 16.6474 0.5 16.6489 0.5 16.6505C0.5 16.6521 0.5 16.6536 0.5 16.6552C0.5 16.6567 0.5 16.6583 0.5 16.6599C0.5 16.6614 0.5 16.663 0.5 16.6646C0.5 16.6661 0.5 16.6677 0.5 16.6693C0.5 16.6708 0.5 16.6724 0.5 16.6739C0.5 16.6755 0.5 16.6771 0.5 16.6786C0.5 16.6802 0.5 16.6818 0.5 16.6833C0.5 16.6849 0.5 16.6865 0.5 16.688C0.5 16.6896 0.5 16.6912 0.5 16.6927C0.5 16.6943 0.5 16.6958 0.5 16.6974C0.5 16.699 0.5 16.7005 0.5 16.7021C0.5 16.7037 0.5 16.7052 0.5 16.7068C0.5 16.7084 0.5 16.7099 0.5 16.7115C0.5 16.7131 0.5 16.7146 0.5 16.7162C0.5 16.7178 0.5 16.7193 0.5 16.7209C0.5 16.7225 0.5 16.724 0.5 16.7256C0.5 16.7272 0.5 16.7287 0.5 16.7303C0.5 16.7319 0.5 16.7335 0.5 16.735C0.5 16.7366 0.5 16.7382 0.5 16.7397C0.5 16.7413 0.5 16.7429 0.5 16.7444C0.5 16.746 0.5 16.7476 0.5 16.7491C0.5 16.7507 0.5 16.7523 0.5 16.7538C0.5 16.7554 0.5 16.757 0.5 16.7586C0.5 16.7601 0.5 16.7617 0.5 16.7633C0.5 16.7648 0.5 16.7664 0.5 16.768C0.5 16.7696 0.5 16.7711 0.5 16.7727C0.5 16.7743 0.5 16.7758 0.5 16.7774C0.5 16.779 0.5 16.7805 0.5 16.7821C0.5 16.7837 0.5 16.7853 0.5 16.7868C0.5 16.7884 0.5 16.79 0.5 16.7916C0.5 16.7931 0.5 16.7947 0.5 16.7963C0.5 16.7978 0.5 16.7994 0.5 16.801C0.5 16.8026 0.5 16.8041 0.5 16.8057C0.5 16.8073 0.5 16.8089 0.5 16.8104C0.5 16.812 0.5 16.8136 0.5 16.8151C0.5 16.8167 0.5 16.8183 0.5 16.8199C0.5 16.8214 0.5 16.823 0.5 16.8246C0.5 16.8262 0.5 16.8277 0.5 16.8293C0.5 16.8309 0.5 16.8325 0.5 16.834C0.5 16.8356 0.5 16.8372 0.5 16.8388C0.5 16.8403 0.5 16.8419 0.5 16.8435C0.5 16.8451 0.5 16.8466 0.5 16.8482C0.5 16.8498 0.5 16.8514 0.5 16.8529C0.5 16.8545 0.5 16.8561 0.5 16.8577C0.5 16.8593 0.5 16.8608 0.5 16.8624C0.5 16.864 0.5 16.8656 0.5 16.8671C0.5 16.8687 0.5 16.8703 0.5 16.8719C0.5 16.8734 0.5 16.875 0.5 16.8766C0.5 16.8782 0.5 16.8798 0.5 16.8813C0.5 16.8829 0.5 16.8845 0.5 16.8861C0.5 16.8877 0.5 16.8892 0.5 16.8908C0.5 16.8924 0.5 16.894 0.5 16.8955C0.5 16.8971 0.5 16.8987 0.5 16.9003C0.5 16.9019 0.5 16.9034 0.5 16.905C0.5 16.9066 0.5 16.9082 0.5 16.9098C0.5 16.9113 0.5 16.9129 0.5 16.9145C0.5 16.9161 0.5 16.9177 0.5 16.9192C0.5 16.9208 0.5 16.9224 0.5 16.924C0.5 16.9256 0.5 16.9272 0.5 16.9287C0.5 16.9303 0.5 16.9319 0.5 16.9335C0.5 16.9351 0.5 16.9366 0.5 16.9382C0.5 16.9398 0.5 16.9414 0.5 16.943C0.5 16.9446 0.5 16.9461 0.5 16.9477C0.5 16.9493 0.5 16.9509 0.5 16.9525C0.5 16.954 0.5 16.9556 0.5 16.9572C0.5 16.9588 0.5 16.9604 0.5 16.962C0.5 16.9635 0.5 16.9651 0.5 16.9667C0.5 16.9683 0.5 16.9699 0.5 16.9715C0.5 16.9731 0.5 16.9746 0.5 16.9762C0.5 16.9778 0.5 16.9794 0.5 16.981C0.5 16.9826 0.5 16.9841 0.5 16.9857C0.5 16.9873 0.5 16.9889 0.5 16.9905C0.5 16.9921 0.5 16.9937 0.5 16.9952C0.5 16.9968 0.5 16.9984 0.5 17H1.5ZM4.4308 11.7857H9.00521V10.7857H4.4308V11.7857ZM11.936 14.7159C11.936 14.7173 11.936 14.7187 11.936 14.72C11.936 14.7214 11.936 14.7228 11.936 14.7241C11.936 14.7255 11.936 14.7269 11.936 14.7282C11.936 14.7296 11.936 14.731 11.936 14.7323C11.936 14.7337 11.936 14.7351 11.936 14.7365C11.936 14.7378 11.936 14.7392 11.936 14.7406C11.936 14.7419 11.936 14.7433 11.936 14.7447C11.936 14.746 11.936 14.7474 11.936 14.7488C11.936 14.7502 11.936 14.7515 11.936 14.7529C11.936 14.7543 11.936 14.7556 11.936 14.757C11.936 14.7584 11.936 14.7598 11.936 14.7611C11.936 14.7625 11.936 14.7639 11.936 14.7652C11.936 14.7666 11.936 14.768 11.936 14.7694C11.936 14.7707 11.936 14.7721 11.936 14.7735C11.936 14.7749 11.936 14.7762 11.936 14.7776C11.936 14.779 11.936 14.7804 11.936 14.7817C11.936 14.7831 11.936 14.7845 11.936 14.7859C11.936 14.7872 11.936 14.7886 11.936 14.79C11.936 14.7914 11.936 14.7927 11.936 14.7941C11.936 14.7955 11.936 14.7969 11.936 14.7982C11.936 14.7996 11.936 14.801 11.936 14.8024C11.936 14.8038 11.936 14.8051 11.936 14.8065C11.936 14.8079 11.936 14.8093 11.936 14.8107C11.936 14.812 11.936 14.8134 11.936 14.8148C11.936 14.8162 11.936 14.8175 11.936 14.8189C11.936 14.8203 11.936 14.8217 11.936 14.8231C11.936 14.8245 11.936 14.8258 11.936 14.8272C11.936 14.8286 11.936 14.83 11.936 14.8314C11.936 14.8327 11.936 14.8341 11.936 14.8355C11.936 14.8369 11.936 14.8383 11.936 14.8397C11.936 14.841 11.936 14.8424 11.936 14.8438C11.936 14.8452 11.936 14.8466 11.936 14.848C11.936 14.8493 11.936 14.8507 11.936 14.8521C11.936 14.8535 11.936 14.8549 11.936 14.8563C11.936 14.8576 11.936 14.859 11.936 14.8604C11.936 14.8618 11.936 14.8632 11.936 14.8646C11.936 14.866 11.936 14.8673 11.936 14.8687C11.936 14.8701 11.936 14.8715 11.936 14.8729C11.936 14.8743 11.936 14.8757 11.936 14.8771C11.936 14.8784 11.936 14.8798 11.936 14.8812C11.936 14.8826 11.936 14.884 11.936 14.8854C11.936 14.8868 11.936 14.8882 11.936 14.8895C11.936 14.8909 11.936 14.8923 11.936 14.8937C11.936 14.8951 11.936 14.8965 11.936 14.8979C11.936 14.8993 11.936 14.9007 11.936 14.9021C11.936 14.9034 11.936 14.9048 11.936 14.9062C11.936 14.9076 11.936 14.909 11.936 14.9104C11.936 14.9118 11.936 14.9132 11.936 14.9146C11.936 14.916 11.936 14.9174 11.936 14.9188C11.936 14.9202 11.936 14.9215 11.936 14.9229C11.936 14.9243 11.936 14.9257 11.936 14.9271C11.936 14.9285 11.936 14.9299 11.936 14.9313C11.936 14.9327 11.936 14.9341 11.936 14.9355C11.936 14.9369 11.936 14.9383 11.936 14.9397C11.936 14.9411 11.936 14.9425 11.936 14.9439C11.936 14.9453 11.936 14.9467 11.936 14.9481C11.936 14.9494 11.936 14.9508 11.936 14.9522C11.936 14.9536 11.936 14.955 11.936 14.9564C11.936 14.9578 11.936 14.9592 11.936 14.9606C11.936 14.962 11.936 14.9634 11.936 14.9648C11.936 14.9662 11.936 14.9676 11.936 14.969C11.936 14.9704 11.936 14.9718 11.936 14.9732C11.936 14.9746 11.936 14.976 11.936 14.9774C11.936 14.9788 11.936 14.9802 11.936 14.9816C11.936 14.983 11.936 14.9844 11.936 14.9858C11.936 14.9872 11.936 14.9886 11.936 14.99C11.936 14.9914 11.936 14.9928 11.936 14.9942C11.936 14.9956 11.936 14.997 11.936 14.9984C11.936 14.9999 11.936 15.0013 11.936 15.0027C11.936 15.0041 11.936 15.0055 11.936 15.0069C11.936 15.0083 11.936 15.0097 11.936 15.0111C11.936 15.0125 11.936 15.0139 11.936 15.0153C11.936 15.0167 11.936 15.0181 11.936 15.0195C11.936 15.0209 11.936 15.0223 11.936 15.0237C11.936 15.0251 11.936 15.0265 11.936 15.0279C11.936 15.0294 11.936 15.0308 11.936 15.0322C11.936 15.0336 11.936 15.035 11.936 15.0364C11.936 15.0378 11.936 15.0392 11.936 15.0406C11.936 15.042 11.936 15.0434 11.936 15.0448C11.936 15.0463 11.936 15.0477 11.936 15.0491C11.936 15.0505 11.936 15.0519 11.936 15.0533C11.936 15.0547 11.936 15.0561 11.936 15.0575C11.936 15.0589 11.936 15.0603 11.936 15.0618C11.936 15.0632 11.936 15.0646 11.936 15.066C11.936 15.0674 11.936 15.0688 11.936 15.0702C11.936 15.0716 11.936 15.0731 11.936 15.0745C11.936 15.0759 11.936 15.0773 11.936 15.0787C11.936 15.0801 11.936 15.0815 11.936 15.0829C11.936 15.0844 11.936 15.0858 11.936 15.0872C11.936 15.0886 11.936 15.09 11.936 15.0914C11.936 15.0928 11.936 15.0943 11.936 15.0957C11.936 15.0971 11.936 15.0985 11.936 15.0999C11.936 15.1013 11.936 15.1027 11.936 15.1042C11.936 15.1056 11.936 15.107 11.936 15.1084C11.936 15.1098 11.936 15.1112 11.936 15.1127C11.936 15.1141 11.936 15.1155 11.936 15.1169C11.936 15.1183 11.936 15.1197 11.936 15.1212C11.936 15.1226 11.936 15.124 11.936 15.1254C11.936 15.1268 11.936 15.1283 11.936 15.1297C11.936 15.1311 11.936 15.1325 11.936 15.1339C11.936 15.1354 11.936 15.1368 11.936 15.1382C11.936 15.1396 11.936 15.141 11.936 15.1425C11.936 15.1439 11.936 15.1453 11.936 15.1467C11.936 15.1481 11.936 15.1496 11.936 15.151C11.936 15.1524 11.936 15.1538 11.936 15.1552C11.936 15.1567 11.936 15.1581 11.936 15.1595C11.936 15.1609 11.936 15.1624 11.936 15.1638C11.936 15.1652 11.936 15.1666 11.936 15.168C11.936 15.1695 11.936 15.1709 11.936 15.1723C11.936 15.1737 11.936 15.1752 11.936 15.1766C11.936 15.178 11.936 15.1794 11.936 15.1809C11.936 15.1823 11.936 15.1837 11.936 15.1851C11.936 15.1866 11.936 15.188 11.936 15.1894C11.936 15.1908 11.936 15.1923 11.936 15.1937C11.936 15.1951 11.936 15.1966 11.936 15.198C11.936 15.1994 11.936 15.2008 11.936 15.2023C11.936 15.2037 11.936 15.2051 11.936 15.2065C11.936 15.208 11.936 15.2094 11.936 15.2108C11.936 15.2123 11.936 15.2137 11.936 15.2151C11.936 15.2165 11.936 15.218 11.936 15.2194C11.936 15.2208 11.936 15.2223 11.936 15.2237C11.936 15.2251 11.936 15.2266 11.936 15.228C11.936 15.2294 11.936 15.2308 11.936 15.2323C11.936 15.2337 11.936 15.2351 11.936 15.2366C11.936 15.238 11.936 15.2394 11.936 15.2409C11.936 15.2423 11.936 15.2437 11.936 15.2452C11.936 15.2466 11.936 15.248 11.936 15.2495C11.936 15.2509 11.936 15.2523 11.936 15.2538C11.936 15.2552 11.936 15.2566 11.936 15.2581C11.936 15.2595 11.936 15.2609 11.936 15.2624C11.936 15.2638 11.936 15.2652 11.936 15.2667C11.936 15.2681 11.936 15.2695 11.936 15.271C11.936 15.2724 11.936 15.2738 11.936 15.2753C11.936 15.2767 11.936 15.2782 11.936 15.2796C11.936 15.281 11.936 15.2825 11.936 15.2839C11.936 15.2853 11.936 15.2868 11.936 15.2882C11.936 15.2896 11.936 15.2911 11.936 15.2925C11.936 15.294 11.936 15.2954 11.936 15.2968C11.936 15.2983 11.936 15.2997 11.936 15.3012C11.936 15.3026 11.936 15.304 11.936 15.3055C11.936 15.3069 11.936 15.3083 11.936 15.3098C11.936 15.3112 11.936 15.3127 11.936 15.3141C11.936 15.3155 11.936 15.317 11.936 15.3184C11.936 15.3199 11.936 15.3213 11.936 15.3228C11.936 15.3242 11.936 15.3256 11.936 15.3271C11.936 15.3285 11.936 15.33 11.936 15.3314C11.936 15.3328 11.936 15.3343 11.936 15.3357C11.936 15.3372 11.936 15.3386 11.936 15.3401C11.936 15.3415 11.936 15.3429 11.936 15.3444C11.936 15.3458 11.936 15.3473 11.936 15.3487C11.936 15.3502 11.936 15.3516 11.936 15.3531C11.936 15.3545 11.936 15.3559 11.936 15.3574C11.936 15.3588 11.936 15.3603 11.936 15.3617C11.936 15.3632 11.936 15.3646 11.936 15.3661C11.936 15.3675 11.936 15.369 11.936 15.3704C11.936 15.3719 11.936 15.3733 11.936 15.3747C11.936 15.3762 11.936 15.3776 11.936 15.3791C11.936 15.3805 11.936 15.382 11.936 15.3834C11.936 15.3849 11.936 15.3863 11.936 15.3878C11.936 15.3892 11.936 15.3907 11.936 15.3921C11.936 15.3936 11.936 15.395 11.936 15.3965C11.936 15.3979 11.936 15.3994 11.936 15.4008C11.936 15.4023 11.936 15.4037 11.936 15.4052C11.936 15.4066 11.936 15.4081 11.936 15.4095C11.936 15.411 11.936 15.4124 11.936 15.4139C11.936 15.4153 11.936 15.4168 11.936 15.4182C11.936 15.4197 11.936 15.4211 11.936 15.4226C11.936 15.424 11.936 15.4255 11.936 15.4269C11.936 15.4284 11.936 15.4298 11.936 15.4313C11.936 15.4328 11.936 15.4342 11.936 15.4357C11.936 15.4371 11.936 15.4386 11.936 15.44C11.936 15.4415 11.936 15.4429 11.936 15.4444C11.936 15.4458 11.936 15.4473 11.936 15.4488C11.936 15.4502 11.936 15.4517 11.936 15.4531C11.936 15.4546 11.936 15.456 11.936 15.4575C11.936 15.4589 11.936 15.4604 11.936 15.4619C11.936 15.4633 11.936 15.4648 11.936 15.4662C11.936 15.4677 11.936 15.4691 11.936 15.4706C11.936 15.4721 11.936 15.4735 11.936 15.475C11.936 15.4764 11.936 15.4779 11.936 15.4793C11.936 15.4808 11.936 15.4823 11.936 15.4837C11.936 15.4852 11.936 15.4866 11.936 15.4881C11.936 15.4896 11.936 15.491 11.936 15.4925C11.936 15.4939 11.936 15.4954 11.936 15.4969C11.936 15.4983 11.936 15.4998 11.936 15.5012C11.936 15.5027 11.936 15.5042 11.936 15.5056C11.936 15.5071 11.936 15.5085 11.936 15.51C11.936 15.5115 11.936 15.5129 11.936 15.5144C11.936 15.5159 11.936 15.5173 11.936 15.5188C11.936 15.5202 11.936 15.5217 11.936 15.5232C11.936 15.5246 11.936 15.5261 11.936 15.5276C11.936 15.529 11.936 15.5305 11.936 15.5319C11.936 15.5334 11.936 15.5349 11.936 15.5363C11.936 15.5378 11.936 15.5393 11.936 15.5407C11.936 15.5422 11.936 15.5437 11.936 15.5451C11.936 15.5466 11.936 15.5481 11.936 15.5495C11.936 15.551 11.936 15.5525 11.936 15.5539C11.936 15.5554 11.936 15.5569 11.936 15.5583C11.936 15.5598 11.936 15.5613 11.936 15.5627C11.936 15.5642 11.936 15.5657 11.936 15.5671C11.936 15.5686 11.936 15.5701 11.936 15.5715C11.936 15.573 11.936 15.5745 11.936 15.5759C11.936 15.5774 11.936 15.5789 11.936 15.5803C11.936 15.5818 11.936 15.5833 11.936 15.5848C11.936 15.5862 11.936 15.5877 11.936 15.5892C11.936 15.5906 11.936 15.5921 11.936 15.5936C11.936 15.595 11.936 15.5965 11.936 15.598C11.936 15.5995 11.936 15.6009 11.936 15.6024C11.936 15.6039 11.936 15.6053 11.936 15.6068C11.936 15.6083 11.936 15.6098 11.936 15.6112C11.936 15.6127 11.936 15.6142 11.936 15.6156C11.936 15.6171 11.936 15.6186 11.936 15.6201C11.936 15.6215 11.936 15.623 11.936 15.6245C11.936 15.626 11.936 15.6274 11.936 15.6289C11.936 15.6304 11.936 15.6319 11.936 15.6333C11.936 15.6348 11.936 15.6363 11.936 15.6377C11.936 15.6392 11.936 15.6407 11.936 15.6422C11.936 15.6437 11.936 15.6451 11.936 15.6466C11.936 15.6481 11.936 15.6496 11.936 15.651C11.936 15.6525 11.936 15.654 11.936 15.6555C11.936 15.6569 11.936 15.6584 11.936 15.6599C11.936 15.6614 11.936 15.6628 11.936 15.6643C11.936 15.6658 11.936 15.6673 11.936 15.6688C11.936 15.6702 11.936 15.6717 11.936 15.6732C11.936 15.6747 11.936 15.6761 11.936 15.6776C11.936 15.6791 11.936 15.6806 11.936 15.6821C11.936 15.6835 11.936 15.685 11.936 15.6865C11.936 15.688 11.936 15.6895 11.936 15.6909C11.936 15.6924 11.936 15.6939 11.936 15.6954C11.936 15.6969 11.936 15.6983 11.936 15.6998C11.936 15.7013 11.936 15.7028 11.936 15.7043C11.936 15.7058 11.936 15.7072 11.936 15.7087C11.936 15.7102 11.936 15.7117 11.936 15.7132C11.936 15.7146 11.936 15.7161 11.936 15.7176C11.936 15.7191 11.936 15.7206 11.936 15.7221C11.936 15.7235 11.936 15.725 11.936 15.7265C11.936 15.728 11.936 15.7295 11.936 15.731C11.936 15.7324 11.936 15.7339 11.936 15.7354C11.936 15.7369 11.936 15.7384 11.936 15.7399C11.936 15.7414 11.936 15.7428 11.936 15.7443C11.936 15.7458 11.936 15.7473 11.936 15.7488C11.936 15.7503 11.936 15.7518 11.936 15.7532C11.936 15.7547 11.936 15.7562 11.936 15.7577C11.936 15.7592 11.936 15.7607 11.936 15.7622C11.936 15.7637 11.936 15.7651 11.936 15.7666C11.936 15.7681 11.936 15.7696 11.936 15.7711C11.936 15.7726 11.936 15.7741 11.936 15.7756C11.936 15.777 11.936 15.7785 11.936 15.78C11.936 15.7815 11.936 15.783 11.936 15.7845C11.936 15.786 11.936 15.7875 11.936 15.789C11.936 15.7904 11.936 15.7919 11.936 15.7934C11.936 15.7949 11.936 15.7964 11.936 15.7979C11.936 15.7994 11.936 15.8009 11.936 15.8024C11.936 15.8039 11.936 15.8054 11.936 15.8068C11.936 15.8083 11.936 15.8098 11.936 15.8113C11.936 15.8128 11.936 15.8143 11.936 15.8158C11.936 15.8173 11.936 15.8188 11.936 15.8203C11.936 15.8218 11.936 15.8233 11.936 15.8248C11.936 15.8263 11.936 15.8277 11.936 15.8292C11.936 15.8307 11.936 15.8322 11.936 15.8337C11.936 15.8352 11.936 15.8367 11.936 15.8382C11.936 15.8397 11.936 15.8412 11.936 15.8427C11.936 15.8442 11.936 15.8457 11.936 15.8472C11.936 15.8487 11.936 15.8502 11.936 15.8517C11.936 15.8532 11.936 15.8547 11.936 15.8561C11.936 15.8576 11.936 15.8591 11.936 15.8606C11.936 15.8621 11.936 15.8636 11.936 15.8651C11.936 15.8666 11.936 15.8681 11.936 15.8696C11.936 15.8711 11.936 15.8726 11.936 15.8741C11.936 15.8756 11.936 15.8771 11.936 15.8786C11.936 15.8801 11.936 15.8816 11.936 15.8831C11.936 15.8846 11.936 15.8861 11.936 15.8876C11.936 15.8891 11.936 15.8906 11.936 15.8921C11.936 15.8936 11.936 15.8951 11.936 15.8966C11.936 15.8981 11.936 15.8996 11.936 15.9011C11.936 15.9026 11.936 15.9041 11.936 15.9056C11.936 15.9071 11.936 15.9086 11.936 15.9101C11.936 15.9116 11.936 15.9131 11.936 15.9146C11.936 15.9161 11.936 15.9176 11.936 15.9191C11.936 15.9206 11.936 15.9221 11.936 15.9236C11.936 15.9251 11.936 15.9266 11.936 15.9281C11.936 15.9296 11.936 15.9311 11.936 15.9326C11.936 15.9341 11.936 15.9356 11.936 15.9372C11.936 15.9387 11.936 15.9402 11.936 15.9417C11.936 15.9432 11.936 15.9447 11.936 15.9462C11.936 15.9477 11.936 15.9492 11.936 15.9507C11.936 15.9522 11.936 15.9537 11.936 15.9552C11.936 15.9567 11.936 15.9582 11.936 15.9597C11.936 15.9612 11.936 15.9627 11.936 15.9642C11.936 15.9658 11.936 15.9673 11.936 15.9688C11.936 15.9703 11.936 15.9718 11.936 15.9733C11.936 15.9748 11.936 15.9763 11.936 15.9778C11.936 15.9793 11.936 15.9808 11.936 15.9823C11.936 15.9838 11.936 15.9853 11.936 15.9869C11.936 15.9884 11.936 15.9899 11.936 15.9914C11.936 15.9929 11.936 15.9944 11.936 15.9959C11.936 15.9974 11.936 15.9989 11.936 16.0004C11.936 16.0019 11.936 16.0035 11.936 16.005C11.936 16.0065 11.936 16.008 11.936 16.0095C11.936 16.011 11.936 16.0125 11.936 16.014C11.936 16.0155 11.936 16.0171 11.936 16.0186C11.936 16.0201 11.936 16.0216 11.936 16.0231C11.936 16.0246 11.936 16.0261 11.936 16.0276C11.936 16.0291 11.936 16.0307 11.936 16.0322C11.936 16.0337 11.936 16.0352 11.936 16.0367C11.936 16.0382 11.936 16.0397 11.936 16.0412C11.936 16.0428 11.936 16.0443 11.936 16.0458C11.936 16.0473 11.936 16.0488 11.936 16.0503C11.936 16.0518 11.936 16.0534 11.936 16.0549C11.936 16.0564 11.936 16.0579 11.936 16.0594C11.936 16.0609 11.936 16.0624 11.936 16.064C11.936 16.0655 11.936 16.067 11.936 16.0685C11.936 16.07 11.936 16.0715 11.936 16.0731C11.936 16.0746 11.936 16.0761 11.936 16.0776C11.936 16.0791 11.936 16.0806 11.936 16.0822C11.936 16.0837 11.936 16.0852 11.936 16.0867C11.936 16.0882 11.936 16.0897 11.936 16.0913C11.936 16.0928 11.936 16.0943 11.936 16.0958C11.936 16.0973 11.936 16.0988 11.936 16.1004C11.936 16.1019 11.936 16.1034 11.936 16.1049C11.936 16.1064 11.936 16.108 11.936 16.1095C11.936 16.111 11.936 16.1125 11.936 16.114C11.936 16.1156 11.936 16.1171 11.936 16.1186C11.936 16.1201 11.936 16.1216 11.936 16.1232C11.936 16.1247 11.936 16.1262 11.936 16.1277C11.936 16.1292 11.936 16.1308 11.936 16.1323C11.936 16.1338 11.936 16.1353 11.936 16.1368C11.936 16.1384 11.936 16.1399 11.936 16.1414C11.936 16.1429 11.936 16.1445 11.936 16.146C11.936 16.1475 11.936 16.149 11.936 16.1505C11.936 16.1521 11.936 16.1536 11.936 16.1551C11.936 16.1566 11.936 16.1582 11.936 16.1597C11.936 16.1612 11.936 16.1627 11.936 16.1643C11.936 16.1658 11.936 16.1673 11.936 16.1688C11.936 16.1704 11.936 16.1719 11.936 16.1734C11.936 16.1749 11.936 16.1765 11.936 16.178C11.936 16.1795 11.936 16.181 11.936 16.1826C11.936 16.1841 11.936 16.1856 11.936 16.1871C11.936 16.1887 11.936 16.1902 11.936 16.1917C11.936 16.1932 11.936 16.1948 11.936 16.1963C11.936 16.1978 11.936 16.1993 11.936 16.2009C11.936 16.2024 11.936 16.2039 11.936 16.2055C11.936 16.207 11.936 16.2085 11.936 16.21C11.936 16.2116 11.936 16.2131 11.936 16.2146C11.936 16.2162 11.936 16.2177 11.936 16.2192C11.936 16.2207 11.936 16.2223 11.936 16.2238C11.936 16.2253 11.936 16.2269 11.936 16.2284C11.936 16.2299 11.936 16.2314 11.936 16.233C11.936 16.2345 11.936 16.236 11.936 16.2376C11.936 16.2391 11.936 16.2406 11.936 16.2422C11.936 16.2437 11.936 16.2452 11.936 16.2467C11.936 16.2483 11.936 16.2498 11.936 16.2513C11.936 16.2529 11.936 16.2544 11.936 16.2559C11.936 16.2575 11.936 16.259 11.936 16.2605C11.936 16.2621 11.936 16.2636 11.936 16.2651C11.936 16.2667 11.936 16.2682 11.936 16.2697C11.936 16.2713 11.936 16.2728 11.936 16.2743C11.936 16.2759 11.936 16.2774 11.936 16.2789C11.936 16.2805 11.936 16.282 11.936 16.2835C11.936 16.2851 11.936 16.2866 11.936 16.2881C11.936 16.2897 11.936 16.2912 11.936 16.2927C11.936 16.2943 11.936 16.2958 11.936 16.2973C11.936 16.2989 11.936 16.3004 11.936 16.3019C11.936 16.3035 11.936 16.305 11.936 16.3065C11.936 16.3081 11.936 16.3096 11.936 16.3112C11.936 16.3127 11.936 16.3142 11.936 16.3158C11.936 16.3173 11.936 16.3188 11.936 16.3204C11.936 16.3219 11.936 16.3235 11.936 16.325C11.936 16.3265 11.936 16.3281 11.936 16.3296C11.936 16.3311 11.936 16.3327 11.936 16.3342C11.936 16.3358 11.936 16.3373 11.936 16.3388C11.936 16.3404 11.936 16.3419 11.936 16.3434C11.936 16.345 11.936 16.3465 11.936 16.3481C11.936 16.3496 11.936 16.3511 11.936 16.3527C11.936 16.3542 11.936 16.3558 11.936 16.3573C11.936 16.3588 11.936 16.3604 11.936 16.3619C11.936 16.3635 11.936 16.365 11.936 16.3665C11.936 16.3681 11.936 16.3696 11.936 16.3712C11.936 16.3727 11.936 16.3742 11.936 16.3758C11.936 16.3773 11.936 16.3789 11.936 16.3804C11.936 16.382 11.936 16.3835 11.936 16.385C11.936 16.3866 11.936 16.3881 11.936 16.3897C11.936 16.3912 11.936 16.3928 11.936 16.3943C11.936 16.3958 11.936 16.3974 11.936 16.3989C11.936 16.4005 11.936 16.402 11.936 16.4036C11.936 16.4051 11.936 16.4066 11.936 16.4082C11.936 16.4097 11.936 16.4113 11.936 16.4128C11.936 16.4144 11.936 16.4159 11.936 16.4175C11.936 16.419 11.936 16.4205 11.936 16.4221C11.936 16.4236 11.936 16.4252 11.936 16.4267C11.936 16.4283 11.936 16.4298 11.936 16.4314C11.936 16.4329 11.936 16.4345 11.936 16.436C11.936 16.4375 11.936 16.4391 11.936 16.4406C11.936 16.4422 11.936 16.4437 11.936 16.4453C11.936 16.4468 11.936 16.4484 11.936 16.4499C11.936 16.4515 11.936 16.453 11.936 16.4546C11.936 16.4561 11.936 16.4577 11.936 16.4592C11.936 16.4608 11.936 16.4623 11.936 16.4638C11.936 16.4654 11.936 16.4669 11.936 16.4685C11.936 16.47 11.936 16.4716 11.936 16.4731C11.936 16.4747 11.936 16.4762 11.936 16.4778C11.936 16.4793 11.936 16.4809 11.936 16.4824C11.936 16.484 11.936 16.4855 11.936 16.4871C11.936 16.4886 11.936 16.4902 11.936 16.4917C11.936 16.4933 11.936 16.4948 11.936 16.4964C11.936 16.4979 11.936 16.4995 11.936 16.501C11.936 16.5026 11.936 16.5041 11.936 16.5057C11.936 16.5072 11.936 16.5088 11.936 16.5104C11.936 16.5119 11.936 16.5135 11.936 16.515C11.936 16.5166 11.936 16.5181 11.936 16.5197C11.936 16.5212 11.936 16.5228 11.936 16.5243C11.936 16.5259 11.936 16.5274 11.936 16.529C11.936 16.5305 11.936 16.5321 11.936 16.5336C11.936 16.5352 11.936 16.5368 11.936 16.5383C11.936 16.5399 11.936 16.5414 11.936 16.543C11.936 16.5445 11.936 16.5461 11.936 16.5476C11.936 16.5492 11.936 16.5507 11.936 16.5523C11.936 16.5539 11.936 16.5554 11.936 16.557C11.936 16.5585 11.936 16.5601 11.936 16.5616C11.936 16.5632 11.936 16.5647 11.936 16.5663C11.936 16.5679 11.936 16.5694 11.936 16.571C11.936 16.5725 11.936 16.5741 11.936 16.5756C11.936 16.5772 11.936 16.5788 11.936 16.5803C11.936 16.5819 11.936 16.5834 11.936 16.585C11.936 16.5865 11.936 16.5881 11.936 16.5897C11.936 16.5912 11.936 16.5928 11.936 16.5943C11.936 16.5959 11.936 16.5974 11.936 16.599C11.936 16.6006 11.936 16.6021 11.936 16.6037C11.936 16.6052 11.936 16.6068 11.936 16.6084C11.936 16.6099 11.936 16.6115 11.936 16.613C11.936 16.6146 11.936 16.6162 11.936 16.6177C11.936 16.6193 11.936 16.6208 11.936 16.6224C11.936 16.624 11.936 16.6255 11.936 16.6271C11.936 16.6286 11.936 16.6302 11.936 16.6318C11.936 16.6333 11.936 16.6349 11.936 16.6364C11.936 16.638 11.936 16.6396 11.936 16.6411C11.936 16.6427 11.936 16.6442 11.936 16.6458C11.936 16.6474 11.936 16.6489 11.936 16.6505C11.936 16.6521 11.936 16.6536 11.936 16.6552C11.936 16.6567 11.936 16.6583 11.936 16.6599C11.936 16.6614 11.936 16.663 11.936 16.6646C11.936 16.6661 11.936 16.6677 11.936 16.6693C11.936 16.6708 11.936 16.6724 11.936 16.6739C11.936 16.6755 11.936 16.6771 11.936 16.6786C11.936 16.6802 11.936 16.6818 11.936 16.6833C11.936 16.6849 11.936 16.6865 11.936 16.688C11.936 16.6896 11.936 16.6912 11.936 16.6927C11.936 16.6943 11.936 16.6958 11.936 16.6974C11.936 16.699 11.936 16.7005 11.936 16.7021C11.936 16.7037 11.936 16.7052 11.936 16.7068C11.936 16.7084 11.936 16.7099 11.936 16.7115C11.936 16.7131 11.936 16.7146 11.936 16.7162C11.936 16.7178 11.936 16.7193 11.936 16.7209C11.936 16.7225 11.936 16.724 11.936 16.7256C11.936 16.7272 11.936 16.7287 11.936 16.7303C11.936 16.7319 11.936 16.7335 11.936 16.735C11.936 16.7366 11.936 16.7382 11.936 16.7397C11.936 16.7413 11.936 16.7429 11.936 16.7444C11.936 16.746 11.936 16.7476 11.936 16.7491C11.936 16.7507 11.936 16.7523 11.936 16.7538C11.936 16.7554 11.936 16.757 11.936 16.7586C11.936 16.7601 11.936 16.7617 11.936 16.7633C11.936 16.7648 11.936 16.7664 11.936 16.768C11.936 16.7696 11.936 16.7711 11.936 16.7727C11.936 16.7743 11.936 16.7758 11.936 16.7774C11.936 16.779 11.936 16.7805 11.936 16.7821C11.936 16.7837 11.936 16.7853 11.936 16.7868C11.936 16.7884 11.936 16.79 11.936 16.7916C11.936 16.7931 11.936 16.7947 11.936 16.7963C11.936 16.7978 11.936 16.7994 11.936 16.801C11.936 16.8026 11.936 16.8041 11.936 16.8057C11.936 16.8073 11.936 16.8089 11.936 16.8104C11.936 16.812 11.936 16.8136 11.936 16.8151C11.936 16.8167 11.936 16.8183 11.936 16.8199C11.936 16.8214 11.936 16.823 11.936 16.8246C11.936 16.8262 11.936 16.8277 11.936 16.8293C11.936 16.8309 11.936 16.8325 11.936 16.834C11.936 16.8356 11.936 16.8372 11.936 16.8388C11.936 16.8403 11.936 16.8419 11.936 16.8435C11.936 16.8451 11.936 16.8466 11.936 16.8482C11.936 16.8498 11.936 16.8514 11.936 16.8529C11.936 16.8545 11.936 16.8561 11.936 16.8577C11.936 16.8593 11.936 16.8608 11.936 16.8624C11.936 16.864 11.936 16.8656 11.936 16.8671C11.936 16.8687 11.936 16.8703 11.936 16.8719C11.936 16.8734 11.936 16.875 11.936 16.8766C11.936 16.8782 11.936 16.8798 11.936 16.8813C11.936 16.8829 11.936 16.8845 11.936 16.8861C11.936 16.8877 11.936 16.8892 11.936 16.8908C11.936 16.8924 11.936 16.894 11.936 16.8955C11.936 16.8971 11.936 16.8987 11.936 16.9003C11.936 16.9019 11.936 16.9034 11.936 16.905C11.936 16.9066 11.936 16.9082 11.936 16.9098C11.936 16.9113 11.936 16.9129 11.936 16.9145C11.936 16.9161 11.936 16.9177 11.936 16.9192C11.936 16.9208 11.936 16.9224 11.936 16.924C11.936 16.9256 11.936 16.9272 11.936 16.9287C11.936 16.9303 11.936 16.9319 11.936 16.9335C11.936 16.9351 11.936 16.9366 11.936 16.9382C11.936 16.9398 11.936 16.9414 11.936 16.943C11.936 16.9446 11.936 16.9461 11.936 16.9477C11.936 16.9493 11.936 16.9509 11.936 16.9525C11.936 16.954 11.936 16.9556 11.936 16.9572C11.936 16.9588 11.936 16.9604 11.936 16.962C11.936 16.9635 11.936 16.9651 11.936 16.9667C11.936 16.9683 11.936 16.9699 11.936 16.9715C11.936 16.9731 11.936 16.9746 11.936 16.9762C11.936 16.9778 11.936 16.9794 11.936 16.981C11.936 16.9826 11.936 16.9841 11.936 16.9857C11.936 16.9873 11.936 16.9889 11.936 16.9905C11.936 16.9921 11.936 16.9937 11.936 16.9952C11.936 16.9968 11.936 16.9984 11.936 17H12.936C12.936 16.9984 12.936 16.9968 12.936 16.9952C12.936 16.9937 12.936 16.9921 12.936 16.9905C12.936 16.9889 12.936 16.9873 12.936 16.9857C12.936 16.9841 12.936 16.9826 12.936 16.981C12.936 16.9794 12.936 16.9778 12.936 16.9762C12.936 16.9746 12.936 16.9731 12.936 16.9715C12.936 16.9699 12.936 16.9683 12.936 16.9667C12.936 16.9651 12.936 16.9635 12.936 16.962C12.936 16.9604 12.936 16.9588 12.936 16.9572C12.936 16.9556 12.936 16.954 12.936 16.9525C12.936 16.9509 12.936 16.9493 12.936 16.9477C12.936 16.9461 12.936 16.9446 12.936 16.943C12.936 16.9414 12.936 16.9398 12.936 16.9382C12.936 16.9366 12.936 16.9351 12.936 16.9335C12.936 16.9319 12.936 16.9303 12.936 16.9287C12.936 16.9272 12.936 16.9256 12.936 16.924C12.936 16.9224 12.936 16.9208 12.936 16.9192C12.936 16.9177 12.936 16.9161 12.936 16.9145C12.936 16.9129 12.936 16.9113 12.936 16.9098C12.936 16.9082 12.936 16.9066 12.936 16.905C12.936 16.9034 12.936 16.9019 12.936 16.9003C12.936 16.8987 12.936 16.8971 12.936 16.8955C12.936 16.894 12.936 16.8924 12.936 16.8908C12.936 16.8892 12.936 16.8877 12.936 16.8861C12.936 16.8845 12.936 16.8829 12.936 16.8813C12.936 16.8798 12.936 16.8782 12.936 16.8766C12.936 16.875 12.936 16.8734 12.936 16.8719C12.936 16.8703 12.936 16.8687 12.936 16.8671C12.936 16.8656 12.936 16.864 12.936 16.8624C12.936 16.8608 12.936 16.8593 12.936 16.8577C12.936 16.8561 12.936 16.8545 12.936 16.8529C12.936 16.8514 12.936 16.8498 12.936 16.8482C12.936 16.8466 12.936 16.8451 12.936 16.8435C12.936 16.8419 12.936 16.8403 12.936 16.8388C12.936 16.8372 12.936 16.8356 12.936 16.834C12.936 16.8325 12.936 16.8309 12.936 16.8293C12.936 16.8277 12.936 16.8262 12.936 16.8246C12.936 16.823 12.936 16.8214 12.936 16.8199C12.936 16.8183 12.936 16.8167 12.936 16.8151C12.936 16.8136 12.936 16.812 12.936 16.8104C12.936 16.8089 12.936 16.8073 12.936 16.8057C12.936 16.8041 12.936 16.8026 12.936 16.801C12.936 16.7994 12.936 16.7978 12.936 16.7963C12.936 16.7947 12.936 16.7931 12.936 16.7916C12.936 16.79 12.936 16.7884 12.936 16.7868C12.936 16.7853 12.936 16.7837 12.936 16.7821C12.936 16.7805 12.936 16.779 12.936 16.7774C12.936 16.7758 12.936 16.7743 12.936 16.7727C12.936 16.7711 12.936 16.7696 12.936 16.768C12.936 16.7664 12.936 16.7648 12.936 16.7633C12.936 16.7617 12.936 16.7601 12.936 16.7586C12.936 16.757 12.936 16.7554 12.936 16.7538C12.936 16.7523 12.936 16.7507 12.936 16.7491C12.936 16.7476 12.936 16.746 12.936 16.7444C12.936 16.7429 12.936 16.7413 12.936 16.7397C12.936 16.7382 12.936 16.7366 12.936 16.735C12.936 16.7335 12.936 16.7319 12.936 16.7303C12.936 16.7287 12.936 16.7272 12.936 16.7256C12.936 16.724 12.936 16.7225 12.936 16.7209C12.936 16.7193 12.936 16.7178 12.936 16.7162C12.936 16.7146 12.936 16.7131 12.936 16.7115C12.936 16.7099 12.936 16.7084 12.936 16.7068C12.936 16.7052 12.936 16.7037 12.936 16.7021C12.936 16.7005 12.936 16.699 12.936 16.6974C12.936 16.6958 12.936 16.6943 12.936 16.6927C12.936 16.6912 12.936 16.6896 12.936 16.688C12.936 16.6865 12.936 16.6849 12.936 16.6833C12.936 16.6818 12.936 16.6802 12.936 16.6786C12.936 16.6771 12.936 16.6755 12.936 16.6739C12.936 16.6724 12.936 16.6708 12.936 16.6693C12.936 16.6677 12.936 16.6661 12.936 16.6646C12.936 16.663 12.936 16.6614 12.936 16.6599C12.936 16.6583 12.936 16.6567 12.936 16.6552C12.936 16.6536 12.936 16.6521 12.936 16.6505C12.936 16.6489 12.936 16.6474 12.936 16.6458C12.936 16.6442 12.936 16.6427 12.936 16.6411C12.936 16.6396 12.936 16.638 12.936 16.6364C12.936 16.6349 12.936 16.6333 12.936 16.6318C12.936 16.6302 12.936 16.6286 12.936 16.6271C12.936 16.6255 12.936 16.624 12.936 16.6224C12.936 16.6208 12.936 16.6193 12.936 16.6177C12.936 16.6162 12.936 16.6146 12.936 16.613C12.936 16.6115 12.936 16.6099 12.936 16.6084C12.936 16.6068 12.936 16.6052 12.936 16.6037C12.936 16.6021 12.936 16.6006 12.936 16.599C12.936 16.5974 12.936 16.5959 12.936 16.5943C12.936 16.5928 12.936 16.5912 12.936 16.5897C12.936 16.5881 12.936 16.5865 12.936 16.585C12.936 16.5834 12.936 16.5819 12.936 16.5803C12.936 16.5788 12.936 16.5772 12.936 16.5756C12.936 16.5741 12.936 16.5725 12.936 16.571C12.936 16.5694 12.936 16.5679 12.936 16.5663C12.936 16.5647 12.936 16.5632 12.936 16.5616C12.936 16.5601 12.936 16.5585 12.936 16.557C12.936 16.5554 12.936 16.5539 12.936 16.5523C12.936 16.5507 12.936 16.5492 12.936 16.5476C12.936 16.5461 12.936 16.5445 12.936 16.543C12.936 16.5414 12.936 16.5399 12.936 16.5383C12.936 16.5368 12.936 16.5352 12.936 16.5336C12.936 16.5321 12.936 16.5305 12.936 16.529C12.936 16.5274 12.936 16.5259 12.936 16.5243C12.936 16.5228 12.936 16.5212 12.936 16.5197C12.936 16.5181 12.936 16.5166 12.936 16.515C12.936 16.5135 12.936 16.5119 12.936 16.5104C12.936 16.5088 12.936 16.5072 12.936 16.5057C12.936 16.5041 12.936 16.5026 12.936 16.501C12.936 16.4995 12.936 16.4979 12.936 16.4964C12.936 16.4948 12.936 16.4933 12.936 16.4917C12.936 16.4902 12.936 16.4886 12.936 16.4871C12.936 16.4855 12.936 16.484 12.936 16.4824C12.936 16.4809 12.936 16.4793 12.936 16.4778C12.936 16.4762 12.936 16.4747 12.936 16.4731C12.936 16.4716 12.936 16.47 12.936 16.4685C12.936 16.4669 12.936 16.4654 12.936 16.4638C12.936 16.4623 12.936 16.4608 12.936 16.4592C12.936 16.4577 12.936 16.4561 12.936 16.4546C12.936 16.453 12.936 16.4515 12.936 16.4499C12.936 16.4484 12.936 16.4468 12.936 16.4453C12.936 16.4437 12.936 16.4422 12.936 16.4406C12.936 16.4391 12.936 16.4375 12.936 16.436C12.936 16.4345 12.936 16.4329 12.936 16.4314C12.936 16.4298 12.936 16.4283 12.936 16.4267C12.936 16.4252 12.936 16.4236 12.936 16.4221C12.936 16.4205 12.936 16.419 12.936 16.4175C12.936 16.4159 12.936 16.4144 12.936 16.4128C12.936 16.4113 12.936 16.4097 12.936 16.4082C12.936 16.4066 12.936 16.4051 12.936 16.4036C12.936 16.402 12.936 16.4005 12.936 16.3989C12.936 16.3974 12.936 16.3958 12.936 16.3943C12.936 16.3928 12.936 16.3912 12.936 16.3897C12.936 16.3881 12.936 16.3866 12.936 16.385C12.936 16.3835 12.936 16.382 12.936 16.3804C12.936 16.3789 12.936 16.3773 12.936 16.3758C12.936 16.3742 12.936 16.3727 12.936 16.3712C12.936 16.3696 12.936 16.3681 12.936 16.3665C12.936 16.365 12.936 16.3635 12.936 16.3619C12.936 16.3604 12.936 16.3588 12.936 16.3573C12.936 16.3558 12.936 16.3542 12.936 16.3527C12.936 16.3511 12.936 16.3496 12.936 16.3481C12.936 16.3465 12.936 16.345 12.936 16.3434C12.936 16.3419 12.936 16.3404 12.936 16.3388C12.936 16.3373 12.936 16.3358 12.936 16.3342C12.936 16.3327 12.936 16.3311 12.936 16.3296C12.936 16.3281 12.936 16.3265 12.936 16.325C12.936 16.3235 12.936 16.3219 12.936 16.3204C12.936 16.3188 12.936 16.3173 12.936 16.3158C12.936 16.3142 12.936 16.3127 12.936 16.3112C12.936 16.3096 12.936 16.3081 12.936 16.3065C12.936 16.305 12.936 16.3035 12.936 16.3019C12.936 16.3004 12.936 16.2989 12.936 16.2973C12.936 16.2958 12.936 16.2943 12.936 16.2927C12.936 16.2912 12.936 16.2897 12.936 16.2881C12.936 16.2866 12.936 16.2851 12.936 16.2835C12.936 16.282 12.936 16.2805 12.936 16.2789C12.936 16.2774 12.936 16.2759 12.936 16.2743C12.936 16.2728 12.936 16.2713 12.936 16.2697C12.936 16.2682 12.936 16.2667 12.936 16.2651C12.936 16.2636 12.936 16.2621 12.936 16.2605C12.936 16.259 12.936 16.2575 12.936 16.2559C12.936 16.2544 12.936 16.2529 12.936 16.2513C12.936 16.2498 12.936 16.2483 12.936 16.2467C12.936 16.2452 12.936 16.2437 12.936 16.2422C12.936 16.2406 12.936 16.2391 12.936 16.2376C12.936 16.236 12.936 16.2345 12.936 16.233C12.936 16.2314 12.936 16.2299 12.936 16.2284C12.936 16.2269 12.936 16.2253 12.936 16.2238C12.936 16.2223 12.936 16.2207 12.936 16.2192C12.936 16.2177 12.936 16.2162 12.936 16.2146C12.936 16.2131 12.936 16.2116 12.936 16.21C12.936 16.2085 12.936 16.207 12.936 16.2055C12.936 16.2039 12.936 16.2024 12.936 16.2009C12.936 16.1993 12.936 16.1978 12.936 16.1963C12.936 16.1948 12.936 16.1932 12.936 16.1917C12.936 16.1902 12.936 16.1887 12.936 16.1871C12.936 16.1856 12.936 16.1841 12.936 16.1826C12.936 16.181 12.936 16.1795 12.936 16.178C12.936 16.1765 12.936 16.1749 12.936 16.1734C12.936 16.1719 12.936 16.1704 12.936 16.1688C12.936 16.1673 12.936 16.1658 12.936 16.1643C12.936 16.1627 12.936 16.1612 12.936 16.1597C12.936 16.1582 12.936 16.1566 12.936 16.1551C12.936 16.1536 12.936 16.1521 12.936 16.1505C12.936 16.149 12.936 16.1475 12.936 16.146C12.936 16.1445 12.936 16.1429 12.936 16.1414C12.936 16.1399 12.936 16.1384 12.936 16.1368C12.936 16.1353 12.936 16.1338 12.936 16.1323C12.936 16.1308 12.936 16.1292 12.936 16.1277C12.936 16.1262 12.936 16.1247 12.936 16.1232C12.936 16.1216 12.936 16.1201 12.936 16.1186C12.936 16.1171 12.936 16.1156 12.936 16.114C12.936 16.1125 12.936 16.111 12.936 16.1095C12.936 16.108 12.936 16.1064 12.936 16.1049C12.936 16.1034 12.936 16.1019 12.936 16.1004C12.936 16.0988 12.936 16.0973 12.936 16.0958C12.936 16.0943 12.936 16.0928 12.936 16.0913C12.936 16.0897 12.936 16.0882 12.936 16.0867C12.936 16.0852 12.936 16.0837 12.936 16.0822C12.936 16.0806 12.936 16.0791 12.936 16.0776C12.936 16.0761 12.936 16.0746 12.936 16.0731C12.936 16.0715 12.936 16.07 12.936 16.0685C12.936 16.067 12.936 16.0655 12.936 16.064C12.936 16.0624 12.936 16.0609 12.936 16.0594C12.936 16.0579 12.936 16.0564 12.936 16.0549C12.936 16.0534 12.936 16.0518 12.936 16.0503C12.936 16.0488 12.936 16.0473 12.936 16.0458C12.936 16.0443 12.936 16.0428 12.936 16.0412C12.936 16.0397 12.936 16.0382 12.936 16.0367C12.936 16.0352 12.936 16.0337 12.936 16.0322C12.936 16.0307 12.936 16.0291 12.936 16.0276C12.936 16.0261 12.936 16.0246 12.936 16.0231C12.936 16.0216 12.936 16.0201 12.936 16.0186C12.936 16.0171 12.936 16.0155 12.936 16.014C12.936 16.0125 12.936 16.011 12.936 16.0095C12.936 16.008 12.936 16.0065 12.936 16.005C12.936 16.0035 12.936 16.0019 12.936 16.0004C12.936 15.9989 12.936 15.9974 12.936 15.9959C12.936 15.9944 12.936 15.9929 12.936 15.9914C12.936 15.9899 12.936 15.9884 12.936 15.9869C12.936 15.9853 12.936 15.9838 12.936 15.9823C12.936 15.9808 12.936 15.9793 12.936 15.9778C12.936 15.9763 12.936 15.9748 12.936 15.9733C12.936 15.9718 12.936 15.9703 12.936 15.9688C12.936 15.9673 12.936 15.9658 12.936 15.9642C12.936 15.9627 12.936 15.9612 12.936 15.9597C12.936 15.9582 12.936 15.9567 12.936 15.9552C12.936 15.9537 12.936 15.9522 12.936 15.9507C12.936 15.9492 12.936 15.9477 12.936 15.9462C12.936 15.9447 12.936 15.9432 12.936 15.9417C12.936 15.9402 12.936 15.9387 12.936 15.9372C12.936 15.9356 12.936 15.9341 12.936 15.9326C12.936 15.9311 12.936 15.9296 12.936 15.9281C12.936 15.9266 12.936 15.9251 12.936 15.9236C12.936 15.9221 12.936 15.9206 12.936 15.9191C12.936 15.9176 12.936 15.9161 12.936 15.9146C12.936 15.9131 12.936 15.9116 12.936 15.9101C12.936 15.9086 12.936 15.9071 12.936 15.9056C12.936 15.9041 12.936 15.9026 12.936 15.9011C12.936 15.8996 12.936 15.8981 12.936 15.8966C12.936 15.8951 12.936 15.8936 12.936 15.8921C12.936 15.8906 12.936 15.8891 12.936 15.8876C12.936 15.8861 12.936 15.8846 12.936 15.8831C12.936 15.8816 12.936 15.8801 12.936 15.8786C12.936 15.8771 12.936 15.8756 12.936 15.8741C12.936 15.8726 12.936 15.8711 12.936 15.8696C12.936 15.8681 12.936 15.8666 12.936 15.8651C12.936 15.8636 12.936 15.8621 12.936 15.8606C12.936 15.8591 12.936 15.8576 12.936 15.8561C12.936 15.8547 12.936 15.8532 12.936 15.8517C12.936 15.8502 12.936 15.8487 12.936 15.8472C12.936 15.8457 12.936 15.8442 12.936 15.8427C12.936 15.8412 12.936 15.8397 12.936 15.8382C12.936 15.8367 12.936 15.8352 12.936 15.8337C12.936 15.8322 12.936 15.8307 12.936 15.8292C12.936 15.8277 12.936 15.8263 12.936 15.8248C12.936 15.8233 12.936 15.8218 12.936 15.8203C12.936 15.8188 12.936 15.8173 12.936 15.8158C12.936 15.8143 12.936 15.8128 12.936 15.8113C12.936 15.8098 12.936 15.8083 12.936 15.8068C12.936 15.8054 12.936 15.8039 12.936 15.8024C12.936 15.8009 12.936 15.7994 12.936 15.7979C12.936 15.7964 12.936 15.7949 12.936 15.7934C12.936 15.7919 12.936 15.7904 12.936 15.789C12.936 15.7875 12.936 15.786 12.936 15.7845C12.936 15.783 12.936 15.7815 12.936 15.78C12.936 15.7785 12.936 15.777 12.936 15.7756C12.936 15.7741 12.936 15.7726 12.936 15.7711C12.936 15.7696 12.936 15.7681 12.936 15.7666C12.936 15.7651 12.936 15.7637 12.936 15.7622C12.936 15.7607 12.936 15.7592 12.936 15.7577C12.936 15.7562 12.936 15.7547 12.936 15.7532C12.936 15.7518 12.936 15.7503 12.936 15.7488C12.936 15.7473 12.936 15.7458 12.936 15.7443C12.936 15.7428 12.936 15.7414 12.936 15.7399C12.936 15.7384 12.936 15.7369 12.936 15.7354C12.936 15.7339 12.936 15.7324 12.936 15.731C12.936 15.7295 12.936 15.728 12.936 15.7265C12.936 15.725 12.936 15.7235 12.936 15.7221C12.936 15.7206 12.936 15.7191 12.936 15.7176C12.936 15.7161 12.936 15.7146 12.936 15.7132C12.936 15.7117 12.936 15.7102 12.936 15.7087C12.936 15.7072 12.936 15.7058 12.936 15.7043C12.936 15.7028 12.936 15.7013 12.936 15.6998C12.936 15.6983 12.936 15.6969 12.936 15.6954C12.936 15.6939 12.936 15.6924 12.936 15.6909C12.936 15.6895 12.936 15.688 12.936 15.6865C12.936 15.685 12.936 15.6835 12.936 15.6821C12.936 15.6806 12.936 15.6791 12.936 15.6776C12.936 15.6761 12.936 15.6747 12.936 15.6732C12.936 15.6717 12.936 15.6702 12.936 15.6688C12.936 15.6673 12.936 15.6658 12.936 15.6643C12.936 15.6628 12.936 15.6614 12.936 15.6599C12.936 15.6584 12.936 15.6569 12.936 15.6555C12.936 15.654 12.936 15.6525 12.936 15.651C12.936 15.6496 12.936 15.6481 12.936 15.6466C12.936 15.6451 12.936 15.6437 12.936 15.6422C12.936 15.6407 12.936 15.6392 12.936 15.6377C12.936 15.6363 12.936 15.6348 12.936 15.6333C12.936 15.6319 12.936 15.6304 12.936 15.6289C12.936 15.6274 12.936 15.626 12.936 15.6245C12.936 15.623 12.936 15.6215 12.936 15.6201C12.936 15.6186 12.936 15.6171 12.936 15.6156C12.936 15.6142 12.936 15.6127 12.936 15.6112C12.936 15.6098 12.936 15.6083 12.936 15.6068C12.936 15.6053 12.936 15.6039 12.936 15.6024C12.936 15.6009 12.936 15.5995 12.936 15.598C12.936 15.5965 12.936 15.595 12.936 15.5936C12.936 15.5921 12.936 15.5906 12.936 15.5892C12.936 15.5877 12.936 15.5862 12.936 15.5848C12.936 15.5833 12.936 15.5818 12.936 15.5803C12.936 15.5789 12.936 15.5774 12.936 15.5759C12.936 15.5745 12.936 15.573 12.936 15.5715C12.936 15.5701 12.936 15.5686 12.936 15.5671C12.936 15.5657 12.936 15.5642 12.936 15.5627C12.936 15.5613 12.936 15.5598 12.936 15.5583C12.936 15.5569 12.936 15.5554 12.936 15.5539C12.936 15.5525 12.936 15.551 12.936 15.5495C12.936 15.5481 12.936 15.5466 12.936 15.5451C12.936 15.5437 12.936 15.5422 12.936 15.5407C12.936 15.5393 12.936 15.5378 12.936 15.5363C12.936 15.5349 12.936 15.5334 12.936 15.5319C12.936 15.5305 12.936 15.529 12.936 15.5276C12.936 15.5261 12.936 15.5246 12.936 15.5232C12.936 15.5217 12.936 15.5202 12.936 15.5188C12.936 15.5173 12.936 15.5159 12.936 15.5144C12.936 15.5129 12.936 15.5115 12.936 15.51C12.936 15.5085 12.936 15.5071 12.936 15.5056C12.936 15.5042 12.936 15.5027 12.936 15.5012C12.936 15.4998 12.936 15.4983 12.936 15.4969C12.936 15.4954 12.936 15.4939 12.936 15.4925C12.936 15.491 12.936 15.4896 12.936 15.4881C12.936 15.4866 12.936 15.4852 12.936 15.4837C12.936 15.4823 12.936 15.4808 12.936 15.4793C12.936 15.4779 12.936 15.4764 12.936 15.475C12.936 15.4735 12.936 15.4721 12.936 15.4706C12.936 15.4691 12.936 15.4677 12.936 15.4662C12.936 15.4648 12.936 15.4633 12.936 15.4619C12.936 15.4604 12.936 15.4589 12.936 15.4575C12.936 15.456 12.936 15.4546 12.936 15.4531C12.936 15.4517 12.936 15.4502 12.936 15.4488C12.936 15.4473 12.936 15.4458 12.936 15.4444C12.936 15.4429 12.936 15.4415 12.936 15.44C12.936 15.4386 12.936 15.4371 12.936 15.4357C12.936 15.4342 12.936 15.4328 12.936 15.4313C12.936 15.4298 12.936 15.4284 12.936 15.4269C12.936 15.4255 12.936 15.424 12.936 15.4226C12.936 15.4211 12.936 15.4197 12.936 15.4182C12.936 15.4168 12.936 15.4153 12.936 15.4139C12.936 15.4124 12.936 15.411 12.936 15.4095C12.936 15.4081 12.936 15.4066 12.936 15.4052C12.936 15.4037 12.936 15.4023 12.936 15.4008C12.936 15.3994 12.936 15.3979 12.936 15.3965C12.936 15.395 12.936 15.3936 12.936 15.3921C12.936 15.3907 12.936 15.3892 12.936 15.3878C12.936 15.3863 12.936 15.3849 12.936 15.3834C12.936 15.382 12.936 15.3805 12.936 15.3791C12.936 15.3776 12.936 15.3762 12.936 15.3747C12.936 15.3733 12.936 15.3719 12.936 15.3704C12.936 15.369 12.936 15.3675 12.936 15.3661C12.936 15.3646 12.936 15.3632 12.936 15.3617C12.936 15.3603 12.936 15.3588 12.936 15.3574C12.936 15.3559 12.936 15.3545 12.936 15.3531C12.936 15.3516 12.936 15.3502 12.936 15.3487C12.936 15.3473 12.936 15.3458 12.936 15.3444C12.936 15.3429 12.936 15.3415 12.936 15.3401C12.936 15.3386 12.936 15.3372 12.936 15.3357C12.936 15.3343 12.936 15.3328 12.936 15.3314C12.936 15.33 12.936 15.3285 12.936 15.3271C12.936 15.3256 12.936 15.3242 12.936 15.3228C12.936 15.3213 12.936 15.3199 12.936 15.3184C12.936 15.317 12.936 15.3155 12.936 15.3141C12.936 15.3127 12.936 15.3112 12.936 15.3098C12.936 15.3083 12.936 15.3069 12.936 15.3055C12.936 15.304 12.936 15.3026 12.936 15.3012C12.936 15.2997 12.936 15.2983 12.936 15.2968C12.936 15.2954 12.936 15.294 12.936 15.2925C12.936 15.2911 12.936 15.2896 12.936 15.2882C12.936 15.2868 12.936 15.2853 12.936 15.2839C12.936 15.2825 12.936 15.281 12.936 15.2796C12.936 15.2782 12.936 15.2767 12.936 15.2753C12.936 15.2738 12.936 15.2724 12.936 15.271C12.936 15.2695 12.936 15.2681 12.936 15.2667C12.936 15.2652 12.936 15.2638 12.936 15.2624C12.936 15.2609 12.936 15.2595 12.936 15.2581C12.936 15.2566 12.936 15.2552 12.936 15.2538C12.936 15.2523 12.936 15.2509 12.936 15.2495C12.936 15.248 12.936 15.2466 12.936 15.2452C12.936 15.2437 12.936 15.2423 12.936 15.2409C12.936 15.2394 12.936 15.238 12.936 15.2366C12.936 15.2351 12.936 15.2337 12.936 15.2323C12.936 15.2308 12.936 15.2294 12.936 15.228C12.936 15.2266 12.936 15.2251 12.936 15.2237C12.936 15.2223 12.936 15.2208 12.936 15.2194C12.936 15.218 12.936 15.2165 12.936 15.2151C12.936 15.2137 12.936 15.2123 12.936 15.2108C12.936 15.2094 12.936 15.208 12.936 15.2065C12.936 15.2051 12.936 15.2037 12.936 15.2023C12.936 15.2008 12.936 15.1994 12.936 15.198C12.936 15.1966 12.936 15.1951 12.936 15.1937C12.936 15.1923 12.936 15.1908 12.936 15.1894C12.936 15.188 12.936 15.1866 12.936 15.1851C12.936 15.1837 12.936 15.1823 12.936 15.1809C12.936 15.1794 12.936 15.178 12.936 15.1766C12.936 15.1752 12.936 15.1737 12.936 15.1723C12.936 15.1709 12.936 15.1695 12.936 15.168C12.936 15.1666 12.936 15.1652 12.936 15.1638C12.936 15.1624 12.936 15.1609 12.936 15.1595C12.936 15.1581 12.936 15.1567 12.936 15.1552C12.936 15.1538 12.936 15.1524 12.936 15.151C12.936 15.1496 12.936 15.1481 12.936 15.1467C12.936 15.1453 12.936 15.1439 12.936 15.1425C12.936 15.141 12.936 15.1396 12.936 15.1382C12.936 15.1368 12.936 15.1354 12.936 15.1339C12.936 15.1325 12.936 15.1311 12.936 15.1297C12.936 15.1283 12.936 15.1268 12.936 15.1254C12.936 15.124 12.936 15.1226 12.936 15.1212C12.936 15.1197 12.936 15.1183 12.936 15.1169C12.936 15.1155 12.936 15.1141 12.936 15.1127C12.936 15.1112 12.936 15.1098 12.936 15.1084C12.936 15.107 12.936 15.1056 12.936 15.1042C12.936 15.1027 12.936 15.1013 12.936 15.0999C12.936 15.0985 12.936 15.0971 12.936 15.0957C12.936 15.0943 12.936 15.0928 12.936 15.0914C12.936 15.09 12.936 15.0886 12.936 15.0872C12.936 15.0858 12.936 15.0844 12.936 15.0829C12.936 15.0815 12.936 15.0801 12.936 15.0787C12.936 15.0773 12.936 15.0759 12.936 15.0745C12.936 15.0731 12.936 15.0716 12.936 15.0702C12.936 15.0688 12.936 15.0674 12.936 15.066C12.936 15.0646 12.936 15.0632 12.936 15.0618C12.936 15.0603 12.936 15.0589 12.936 15.0575C12.936 15.0561 12.936 15.0547 12.936 15.0533C12.936 15.0519 12.936 15.0505 12.936 15.0491C12.936 15.0477 12.936 15.0463 12.936 15.0448C12.936 15.0434 12.936 15.042 12.936 15.0406C12.936 15.0392 12.936 15.0378 12.936 15.0364C12.936 15.035 12.936 15.0336 12.936 15.0322C12.936 15.0308 12.936 15.0294 12.936 15.0279C12.936 15.0265 12.936 15.0251 12.936 15.0237C12.936 15.0223 12.936 15.0209 12.936 15.0195C12.936 15.0181 12.936 15.0167 12.936 15.0153C12.936 15.0139 12.936 15.0125 12.936 15.0111C12.936 15.0097 12.936 15.0083 12.936 15.0069C12.936 15.0055 12.936 15.0041 12.936 15.0027C12.936 15.0013 12.936 14.9999 12.936 14.9984C12.936 14.997 12.936 14.9956 12.936 14.9942C12.936 14.9928 12.936 14.9914 12.936 14.99C12.936 14.9886 12.936 14.9872 12.936 14.9858C12.936 14.9844 12.936 14.983 12.936 14.9816C12.936 14.9802 12.936 14.9788 12.936 14.9774C12.936 14.976 12.936 14.9746 12.936 14.9732C12.936 14.9718 12.936 14.9704 12.936 14.969C12.936 14.9676 12.936 14.9662 12.936 14.9648C12.936 14.9634 12.936 14.962 12.936 14.9606C12.936 14.9592 12.936 14.9578 12.936 14.9564C12.936 14.955 12.936 14.9536 12.936 14.9522C12.936 14.9508 12.936 14.9494 12.936 14.9481C12.936 14.9467 12.936 14.9453 12.936 14.9439C12.936 14.9425 12.936 14.9411 12.936 14.9397C12.936 14.9383 12.936 14.9369 12.936 14.9355C12.936 14.9341 12.936 14.9327 12.936 14.9313C12.936 14.9299 12.936 14.9285 12.936 14.9271C12.936 14.9257 12.936 14.9243 12.936 14.9229C12.936 14.9215 12.936 14.9202 12.936 14.9188C12.936 14.9174 12.936 14.916 12.936 14.9146C12.936 14.9132 12.936 14.9118 12.936 14.9104C12.936 14.909 12.936 14.9076 12.936 14.9062C12.936 14.9048 12.936 14.9034 12.936 14.9021C12.936 14.9007 12.936 14.8993 12.936 14.8979C12.936 14.8965 12.936 14.8951 12.936 14.8937C12.936 14.8923 12.936 14.8909 12.936 14.8895C12.936 14.8882 12.936 14.8868 12.936 14.8854C12.936 14.884 12.936 14.8826 12.936 14.8812C12.936 14.8798 12.936 14.8784 12.936 14.8771C12.936 14.8757 12.936 14.8743 12.936 14.8729C12.936 14.8715 12.936 14.8701 12.936 14.8687C12.936 14.8673 12.936 14.866 12.936 14.8646C12.936 14.8632 12.936 14.8618 12.936 14.8604C12.936 14.859 12.936 14.8576 12.936 14.8563C12.936 14.8549 12.936 14.8535 12.936 14.8521C12.936 14.8507 12.936 14.8493 12.936 14.848C12.936 14.8466 12.936 14.8452 12.936 14.8438C12.936 14.8424 12.936 14.841 12.936 14.8397C12.936 14.8383 12.936 14.8369 12.936 14.8355C12.936 14.8341 12.936 14.8327 12.936 14.8314C12.936 14.83 12.936 14.8286 12.936 14.8272C12.936 14.8258 12.936 14.8245 12.936 14.8231C12.936 14.8217 12.936 14.8203 12.936 14.8189C12.936 14.8175 12.936 14.8162 12.936 14.8148C12.936 14.8134 12.936 14.812 12.936 14.8107C12.936 14.8093 12.936 14.8079 12.936 14.8065C12.936 14.8051 12.936 14.8038 12.936 14.8024C12.936 14.801 12.936 14.7996 12.936 14.7982C12.936 14.7969 12.936 14.7955 12.936 14.7941C12.936 14.7927 12.936 14.7914 12.936 14.79C12.936 14.7886 12.936 14.7872 12.936 14.7859C12.936 14.7845 12.936 14.7831 12.936 14.7817C12.936 14.7804 12.936 14.779 12.936 14.7776C12.936 14.7762 12.936 14.7749 12.936 14.7735C12.936 14.7721 12.936 14.7707 12.936 14.7694C12.936 14.768 12.936 14.7666 12.936 14.7652C12.936 14.7639 12.936 14.7625 12.936 14.7611C12.936 14.7598 12.936 14.7584 12.936 14.757C12.936 14.7556 12.936 14.7543 12.936 14.7529C12.936 14.7515 12.936 14.7502 12.936 14.7488C12.936 14.7474 12.936 14.746 12.936 14.7447C12.936 14.7433 12.936 14.7419 12.936 14.7406C12.936 14.7392 12.936 14.7378 12.936 14.7365C12.936 14.7351 12.936 14.7337 12.936 14.7323C12.936 14.731 12.936 14.7296 12.936 14.7282C12.936 14.7269 12.936 14.7255 12.936 14.7241C12.936 14.7228 12.936 14.7214 12.936 14.72C12.936 14.7187 12.936 14.7173 12.936 14.7159H11.936ZM9.00521 11.7857C10.624 11.7857 11.936 13.0974 11.936 14.7159H12.936C12.936 12.5449 11.176 10.7857 9.00521 10.7857V11.7857ZM1.5 14.7159C1.5 13.0974 2.81206 11.7857 4.4308 11.7857V10.7857C2.25999 10.7857 0.5 12.5449 0.5 14.7159H1.5Z" fill="#BF1E77"/>
</svg>
