<svg width="168" height="34" viewBox="0 0 168 34" fill="none" xmlns="http://www.w3.org/2000/svg">
<path d="M27.12 2.608H15.024V34H12.576V2.608H0.48V0.399998H27.12V2.608ZM44.1694 18.064H36.1054V34H33.6574V0.399998H36.1054V15.856H44.2174L56.2654 0.399998H59.0014L46.1374 16.768L59.8654 34H56.9854L44.1694 18.064ZM86.7964 24.544H67.3084L63.0364 34H60.3964L75.8524 0.399998H78.3004L93.7564 34H91.1164L86.7964 24.544ZM85.8844 22.48L77.0524 3.088L68.2684 22.48H85.8844ZM128.096 0.399998V34H125.648V18.016H103.184V34H100.736V0.399998H103.184V15.856H125.648V0.399998H128.096ZM140.204 0.399998H142.652V29.872L165.548 0.399998H167.708V34H165.26V4.576L142.364 34H140.204V0.399998Z" fill="#BF1E77"/>
</svg>
