<svg width="50" height="32" viewBox="0 0 50 32" fill="none" xmlns="http://www.w3.org/2000/svg">
<rect width="50" height="32" rx="3" fill="#00579F"/>
<path d="M22.4669 21.5355H19.3887L21.314 10.5H24.3921L22.4669 21.5355Z" fill="white"/>
<path d="M33.6265 10.7706C33.0194 10.5473 32.0563 10.3008 30.8656 10.3008C27.8257 10.3008 25.685 11.8034 25.6719 13.9517C25.6466 15.5367 27.2045 16.4171 28.3697 16.9456C29.5607 17.4856 29.9655 17.8381 29.9655 18.3195C29.9534 19.0588 29.0032 19.3996 28.1169 19.3996C26.8879 19.3996 26.2294 19.2239 25.2287 18.8126L24.8233 18.6362L24.3926 21.1135C25.1145 21.4184 26.4447 21.6889 27.8257 21.7008C31.0556 21.7008 33.1584 20.2214 33.1833 17.932C33.1956 16.6758 32.373 15.7132 30.5994 14.9266C29.5228 14.4217 28.8634 14.0812 28.8634 13.5646C28.8761 13.0949 29.4211 12.6139 30.6365 12.6139C31.6372 12.5903 32.3725 12.8133 32.9295 13.0364L33.2079 13.1536L33.6265 10.7706Z" fill="white"/>
<path d="M37.7177 17.626C37.9712 16.992 38.9466 14.5384 38.9466 14.5384C38.9339 14.5619 39.1996 13.8927 39.3516 13.4819L39.5668 14.4327C39.5668 14.4327 40.1497 17.0743 40.2763 17.626C39.7952 17.626 38.3257 17.626 37.7177 17.626ZM41.5174 10.5H39.1364C38.4021 10.5 37.8442 10.6994 37.5274 11.4156L32.9551 21.5353H36.185C36.185 21.5353 36.7168 20.1733 36.8311 19.88C37.1854 19.88 40.3275 19.88 40.7833 19.88C40.8717 20.2674 41.1506 21.5353 41.1506 21.5353H44.0008L41.5174 10.5Z" fill="white"/>
<path d="M16.8168 10.5L13.8021 18.0252L13.4727 16.499C12.9154 14.7379 11.1674 12.8246 9.2168 11.8733L11.9781 21.5238H15.2333L20.0718 10.5H16.8168Z" fill="white"/>
<path d="M11.0033 10.5H6.05067L6 10.723C9.86336 11.6388 12.422 13.8462 13.4732 16.4994L12.3966 11.4276C12.2193 10.7228 11.6746 10.5232 11.0033 10.5Z" fill="#FAA61A"/>
</svg>
